<svg xmlns="http://www.w3.org/2000/svg" viewBox="0 0 500 700" width="500" height="700" preserveAspectRatio="none"><polygon points="232,258 218,246 224,231 242,233 247,246" fill="none" stroke="#525252" stroke-width="0.8"/><polygon points="392,671 387,675 366,674 364,652 388,649 391,650" fill="none" stroke="#2f2f2f" stroke-width="0.8"/><polygon points="445,94 447,70 449,68 473,83 474,89 470,95 451,100" fill="none" stroke="#747474" stroke-width="0.8"/><polygon points="470,324 468,320 488,298 500,298 500,329" fill="none" stroke="#e2e2e2" stroke-width="0.8"/><polygon points="481,491 474,510 461,514 450,506 449,493 467,479 468,479" fill="none" stroke="#686868" stroke-width="0.8"/><polygon points="298,48 281,50 272,27 279,19 303,26" fill="none" stroke="#acacac" stroke-width="0.8"/><polygon points="230,471 249,458 258,465 254,485 238,486" fill="none" stroke="#a6a6a6" stroke-width="0.8"/><polygon points="149,485 129,494 116,480 122,463 143,463" fill="none" stroke="#585858" stroke-width="0.8"/><polygon points="478,116 470,95 474,89 500,93 500,113" fill="none" stroke="#2e2e2e" stroke-width="0.8"/><polygon points="114,313 116,332 97,347 79,325 82,314" fill="none" stroke="#3a3a3a" stroke-width="0.8"/><polygon points="242,680 253,673 269,685 269,700 242,700" fill="none" stroke="#595959" stroke-width="0.8"/><polygon points="370,156 371,142 385,132 403,142 403,155 380,165" fill="none" stroke="#959595" stroke-width="0.8"/><polygon points="193,683 209,664 223,669 224,672 214,700 197,700" fill="none" stroke="#414141" stroke-width="0.8"/><polygon points="474,122 461,126 448,116 451,100 470,95 478,116" fill="none" stroke="#afafaf" stroke-width="0.8"/><polygon points="321,455 312,478 307,480 292,466 305,444 310,444" fill="none" stroke="#aaaaaa" stroke-width="0.8"/><polygon points="134,342 135,353 118,370 113,370 96,349 97,347 116,332" fill="none" stroke="#a9a9a9" stroke-width="0.8"/><polygon points="415,539 433,530 444,538 441,561 437,562 418,554" fill="none" stroke="#424242" stroke-width="0.8"/><polygon points="307,24 303,26 279,19 279,0 310,0" fill="none" stroke="#515151" stroke-width="0.8"/><polygon points="427,433 428,457 402,461 401,460 406,432" fill="none" stroke="#8f8f8f" stroke-width="0.8"/><polygon points="311,679 293,674 293,673 302,653 314,652 325,670" fill="none" stroke="#7d7d7d" stroke-width="0.8"/><polygon points="175,33 181,38 185,56 169,68 160,68 153,48" fill="none" stroke="#8e8e8e" stroke-width="0.8"/><polygon points="28,454 30,455 33,464 21,486 0,484 0,456" fill="none" stroke="#bababa" stroke-width="0.8"/><polygon points="216,613 199,619 193,613 192,595 200,590 218,598" fill="none" stroke="#cacaca" stroke-width="0.8"/><polygon points="378,525 353,524 352,505 355,502 375,503 382,516" fill="none" stroke="#dbdbdb" stroke-width="0.8"/><polygon points="427,15 404,33 404,33 392,23 391,0 427,0" fill="none" stroke="#f1f1f1" stroke-width="0.8"/><polygon points="149,190 136,188 131,168 146,162 159,173" fill="none" stroke="#949494" stroke-width="0.8"/><polygon points="269,685 285,672 293,673 293,674 292,700 269,700" fill="none" stroke="#434343" stroke-width="0.8"/><polygon points="289,365 304,359 321,371 322,377 297,390 292,387" fill="none" stroke="#5c5c5c" stroke-width="0.8"/><polygon points="344,161 325,165 315,154 328,133 341,136" fill="none" stroke="#3f3f3f" stroke-width="0.8"/><polygon points="482,557 475,582 457,579 451,566 472,549" fill="none" stroke="#3c3c3c" stroke-width="0.8"/><polygon points="309,623 311,617 328,608 331,609 341,627 334,639 321,640" fill="none" stroke="#bfbfbf" stroke-width="0.8"/><polygon points="217,276 218,287 201,301 189,297 191,274 203,269" fill="none" stroke="#bcbcbc" stroke-width="0.8"/><polygon points="474,390 471,373 500,368 500,394" fill="none" stroke="#505050" stroke-width="0.8"/><polygon points="211,495 231,498 236,509 230,522 211,521 205,503" fill="none" stroke="#3d3d3d" stroke-width="0.8"/><polygon points="354,74 379,59 381,60 384,86 373,93 356,84" fill="none" stroke="#b8b8b8" stroke-width="0.8"/><polygon points="409,621 410,621 412,645 391,650 388,649 384,625 384,625" fill="none" stroke="#444444" stroke-width="0.8"/><polygon points="48,245 30,239 26,226 43,215 54,219 59,228" fill="none" stroke="#c9c9c9" stroke-width="0.8"/><polygon points="309,339 306,334 320,313 322,312 342,330 339,347 338,347" fill="none" stroke="#f9f9f9" stroke-width="0.8"/><polygon points="224,672 242,680 242,700 214,700" fill="none" stroke="#5a5a5a" stroke-width="0.8"/><polygon points="200,453 194,443 212,424 222,429 225,444 219,454" fill="none" stroke="#868686" stroke-width="0.8"/><polygon points="164,393 184,388 188,390 193,408 176,424 159,415" fill="none" stroke="#4a4a4a" stroke-width="0.8"/><polygon points="268,537 263,523 264,520 281,514 297,527 283,544" fill="none" stroke="#505050" stroke-width="0.8"/><polygon points="279,19 272,27 258,28 244,0 279,0" fill="none" stroke="#1d1d1d" stroke-width="0.8"/><polygon points="268,591 268,591 283,605 280,616 259,624 250,614" fill="none" stroke="#767676" stroke-width="0.8"/><polygon points="381,180 392,188 394,204 385,215 363,205 362,191" fill="none" stroke="#cfcfcf" stroke-width="0.8"/><polygon points="225,469 219,454 225,444 247,447 249,458 230,471" fill="none" stroke="#d9d9d9" stroke-width="0.8"/><polygon points="51,498 68,502 78,517 77,518 55,534 43,525" fill="none" stroke="#151515" stroke-width="0.8"/><polygon points="365,675 366,674 387,675 387,700 368,700" fill="none" stroke="#dbdbdb" stroke-width="0.8"/><polygon points="403,108 384,118 372,109 373,93 384,86 397,90" fill="none" stroke="#323232" stroke-width="0.8"/><polygon points="424,585 405,568 418,554 437,562" fill="none" stroke="#c3c3c3" stroke-width="0.8"/><polygon points="38,198 51,188 66,202 54,219 43,215" fill="none" stroke="#c7c7c7" stroke-width="0.8"/><polygon points="33,20 48,18 56,26 49,42 28,36 26,29" fill="none" stroke="#adadad" stroke-width="0.8"/><polygon points="429,617 439,625 438,642 418,649 412,645 410,621" fill="none" stroke="#a9a9a9" stroke-width="0.8"/><polygon points="259,633 243,647 237,647 227,636 229,623 247,613 250,614 259,624" fill="none" stroke="#454545" stroke-width="0.8"/><polygon points="74,617 69,617 50,594 61,577 83,579 87,588" fill="none" stroke="#a4a4a4" stroke-width="0.8"/><polygon points="474,609 478,585 500,586 500,615" fill="none" stroke="#232323" stroke-width="0.8"/><polygon points="27,495 19,518 0,519 0,484 21,486" fill="none" stroke="#e3e3e3" stroke-width="0.8"/><polygon points="169,546 185,554 187,565 172,578 156,572 155,571" fill="none" stroke="#d3d3d3" stroke-width="0.8"/><polygon points="123,199 119,198 108,172 123,165 131,168 136,188" fill="none" stroke="#555555" stroke-width="0.8"/><polygon points="478,201 474,212 455,218 447,212 446,193 469,188" fill="none" stroke="#c7c7c7" stroke-width="0.8"/><polygon points="311,510 297,527 297,527 281,514 285,497 300,494" fill="none" stroke="#212121" stroke-width="0.8"/><polygon points="211,380 221,387 224,396 208,414 193,408 188,390" fill="none" stroke="#b5b5b5" stroke-width="0.8"/><polygon points="352,129 341,136 328,133 320,124 327,100 340,101 354,118" fill="none" stroke="#202020" stroke-width="0.8"/><polygon points="145,597 120,586 121,579 142,564 155,571 156,572" fill="none" stroke="#474747" stroke-width="0.8"/><polygon points="295,79 308,66 325,76 325,98 299,96" fill="none" stroke="#b6b6b6" stroke-width="0.8"/><polygon points="313,540 308,559 303,561 285,550 283,544 297,527 297,527" fill="none" stroke="#565656" stroke-width="0.8"/><polygon points="17,160 28,142 44,160 41,170 25,174" fill="none" stroke="#3f3f3f" stroke-width="0.8"/><polygon points="149,147 160,143 173,155 169,171 159,173 146,162" fill="none" stroke="#313131" stroke-width="0.8"/><polygon points="71,24 56,26 48,18 51,0 71,0" fill="none" stroke="#c3c3c3" stroke-width="0.8"/><polygon points="338,347 339,347 354,356 355,373 335,388 334,388 322,377 321,371" fill="none" stroke="#5d5d5d" stroke-width="0.8"/><polygon points="167,296 167,266 174,264 191,274 189,297 177,302" fill="none" stroke="#959595" stroke-width="0.8"/><polygon points="21,48 28,62 15,72 0,70 0,48" fill="none" stroke="#6d6d6d" stroke-width="0.8"/><polygon points="285,320 288,304 302,298 320,313 306,334 293,331" fill="none" stroke="#6b6b6b" stroke-width="0.8"/><polygon points="375,346 388,358 379,382 376,384 355,373 354,356" fill="none" stroke="#383838" stroke-width="0.8"/><polygon points="90,537 109,532 120,539 121,543 109,563 91,562 85,550" fill="none" stroke="#3d3d3d" stroke-width="0.8"/><polygon points="468,164 472,172 469,188 446,193 440,187 442,169" fill="none" stroke="#7a7a7a" stroke-width="0.8"/><polygon points="465,21 463,0 500,0 500,21" fill="none" stroke="#bfbfbf" stroke-width="0.8"/><polygon points="147,420 159,415 176,424 180,439 166,452 152,452 142,431" fill="none" stroke="#bdbdbd" stroke-width="0.8"/><polygon points="488,298 474,284 476,266 500,264 500,298" fill="none" stroke="#363636" stroke-width="0.8"/><polygon points="102,205 89,185 105,171 108,172 119,198" fill="none" stroke="#888888" stroke-width="0.8"/><polygon points="52,184 41,170 44,160 55,155 71,168 71,170" fill="none" stroke="#636363" stroke-width="0.8"/><polygon points="13,24 26,29 28,36 21,48 0,48 0,27" fill="none" stroke="#e4e4e4" stroke-width="0.8"/><polygon points="350,678 337,669 344,652 363,651 364,652 366,674 365,675" fill="none" stroke="#a9a9a9" stroke-width="0.8"/><polygon points="126,622 117,642 89,634 86,625 112,607" fill="none" stroke="#858585" stroke-width="0.8"/><polygon points="471,544 459,534 461,514 474,510 491,524" fill="none" stroke="#3d3d3d" stroke-width="0.8"/><polygon points="167,541 181,523 202,533 203,539 185,554 169,546" fill="none" stroke="#3a3a3a" stroke-width="0.8"/><polygon points="149,326 165,332 165,358 155,363 135,353 134,342" fill="none" stroke="#acacac" stroke-width="0.8"/><polygon points="440,245 455,234 472,243 473,262 450,264 439,252" fill="none" stroke="#121212" stroke-width="0.8"/><polygon points="336,24 329,31 307,24 310,0 334,0" fill="none" stroke="#434343" stroke-width="0.8"/><polygon points="205,249 194,241 205,218 221,224 224,231 218,246" fill="none" stroke="#0b0b0b" stroke-width="0.8"/><polygon points="263,220 281,215 291,233 286,243 269,243" fill="none" stroke="#414141" stroke-width="0.8"/><polygon points="15,72 21,92 0,98 0,70" fill="none" stroke="#b6b6b6" stroke-width="0.8"/><polygon points="478,585 474,609 464,616 461,615 448,593 457,579 475,582" fill="none" stroke="#c2c2c2" stroke-width="0.8"/><polygon points="55,440 66,449 65,468 53,474 33,464 30,455" fill="none" stroke="#818181" stroke-width="0.8"/><polygon points="472,172 468,164 469,156 486,143 500,145 500,172" fill="none" stroke="#515151" stroke-width="0.8"/><polygon points="189,149 197,154 194,175 174,176 169,171 173,155" fill="none" stroke="#3f3f3f" stroke-width="0.8"/><polygon points="384,487 393,486 406,510 404,513 382,516 375,503" fill="none" stroke="#292929" stroke-width="0.8"/><polygon points="455,293 445,289 444,286 450,264 473,262 476,266 474,284" fill="none" stroke="#c8c8c8" stroke-width="0.8"/><polygon points="72,139 59,142 49,131 50,121 75,115 81,121" fill="none" stroke="#aaaaaa" stroke-width="0.8"/><polygon points="476,266 473,262 472,243 486,232 500,232 500,264" fill="none" stroke="#707070" stroke-width="0.8"/><polygon points="258,28 250,38 237,39 226,27 238,0 244,0" fill="none" stroke="#b5b5b5" stroke-width="0.8"/><polygon points="363,629 358,625 360,604 371,599 381,605 384,625 384,625" fill="none" stroke="#434343" stroke-width="0.8"/><polygon points="105,171 93,154 102,140 110,138 121,145 123,165 108,172" fill="none" stroke="#353535" stroke-width="0.8"/><polygon points="421,50 438,46 450,62 449,68 447,70 417,74 415,73 415,72" fill="none" stroke="#646464" stroke-width="0.8"/><polygon points="91,562 109,563 121,579 120,586 111,595 87,588 83,579" fill="none" stroke="#6b6b6b" stroke-width="0.8"/><polygon points="376,384 371,403 367,406 346,404 335,388 355,373" fill="none" stroke="#959595" stroke-width="0.8"/><polygon points="237,534 237,536 226,548 213,548 203,539 202,533 211,521 230,522" fill="none" stroke="#262626" stroke-width="0.8"/><polygon points="467,479 449,493 432,483 435,464 448,460" fill="none" stroke="#f3f3f3" stroke-width="0.8"/><polygon points="174,176 194,175 202,183 202,185 180,204 174,200" fill="none" stroke="#444444" stroke-width="0.8"/><polygon points="302,408 291,418 270,412 270,411 273,392 292,387 297,390" fill="none" stroke="#191919" stroke-width="0.8"/><polygon points="356,84 373,93 372,109 354,118 340,101" fill="none" stroke="#e8e8e8" stroke-width="0.8"/><polygon points="221,224 233,208 253,217 242,233 224,231" fill="none" stroke="#6b6b6b" stroke-width="0.8"/><polygon points="351,217 334,210 328,198 329,194 352,184 362,191 363,205" fill="none" stroke="#7e7e7e" stroke-width="0.8"/><polygon points="242,365 220,354 221,341 236,332 251,348" fill="none" stroke="#c5c5c5" stroke-width="0.8"/><polygon points="274,462 275,443 292,436 305,444 292,466 281,467" fill="none" stroke="#d9d9d9" stroke-width="0.8"/><polygon points="270,84 248,78 246,70 258,55 275,57 279,75" fill="none" stroke="#535353" stroke-width="0.8"/><polygon points="309,339 338,347 321,371 304,359" fill="none" stroke="#8b8b8b" stroke-width="0.8"/><polygon points="419,506 424,487 432,483 449,493 450,506 432,516" fill="none" stroke="#b2b2b2" stroke-width="0.8"/><polygon points="210,198 204,216 182,209 180,204 202,185" fill="none" stroke="#efefef" stroke-width="0.8"/><polygon points="208,316 204,327 192,333 176,326 177,302 189,297 201,301" fill="none" stroke="#3d3d3d" stroke-width="0.8"/><polygon points="239,322 258,316 266,324 263,345 251,348 236,332" fill="none" stroke="#333333" stroke-width="0.8"/><polygon points="85,550 91,562 83,579 61,577 53,558 58,549" fill="none" stroke="#565656" stroke-width="0.8"/><polygon points="409,676 392,671 391,650 412,645 418,649 419,669" fill="none" stroke="#a9a9a9" stroke-width="0.8"/><polygon points="323,510 331,529 326,536 313,540 297,527 311,510" fill="none" stroke="#d1d1d1" stroke-width="0.8"/><polygon points="226,61 237,39 250,38 258,55 246,70" fill="none" stroke="#4a4a4a" stroke-width="0.8"/><polygon points="202,573 207,570 224,575 228,591 218,598 200,590" fill="none" stroke="#2f2f2f" stroke-width="0.8"/><polygon points="467,679 477,668 500,669 500,700 468,700" fill="none" stroke="#fdfdfd" stroke-width="0.8"/><polygon points="41,306 48,297 79,305 82,314 79,325 61,333 40,320" fill="none" stroke="#949494" stroke-width="0.8"/><polygon points="123,62 124,57 142,43 153,48 160,68 153,75 132,74" fill="none" stroke="#dddddd" stroke-width="0.8"/><polygon points="154,93 137,103 126,91 132,74 153,75" fill="none" stroke="#b6b6b6" stroke-width="0.8"/><polygon points="482,67 471,50 472,47 500,38 500,66" fill="none" stroke="#5b5b5b" stroke-width="0.8"/><polygon points="434,159 442,169 440,187 423,190 411,178 412,166" fill="none" stroke="#4d4d4d" stroke-width="0.8"/><polygon points="347,436 337,425 346,404 367,406 365,429" fill="none" stroke="#afafaf" stroke-width="0.8"/><polygon points="247,276 262,267 276,274 274,293 259,299 246,290" fill="none" stroke="#757575" stroke-width="0.8"/><polygon points="466,319 440,324 431,312 445,289 455,293" fill="none" stroke="#d2d2d2" stroke-width="0.8"/><polygon points="150,216 159,232 155,239 133,244 123,230 131,216" fill="none" stroke="#272727" stroke-width="0.8"/><polygon points="31,357 28,330 40,320 61,333 59,356 40,364" fill="none" stroke="#292929" stroke-width="0.8"/><polygon points="0,661 37,665 40,700 0,700" fill="none" stroke="#828282" stroke-width="0.8"/><polygon points="22,181 27,195 17,205 0,203 0,183" fill="none" stroke="#171717" stroke-width="0.8"/><polygon points="278,358 277,354 293,331 306,334 309,339 304,359 289,365" fill="none" stroke="#acacac" stroke-width="0.8"/><polygon points="420,278 418,262 439,252 450,264 444,286" fill="none" stroke="#b3b3b3" stroke-width="0.8"/><polygon points="292,436 291,418 302,408 314,411 322,425 310,444 305,444" fill="none" stroke="#7b7b7b" stroke-width="0.8"/><polygon points="420,107 436,120 431,138 411,136 410,110" fill="none" stroke="#eeeeee" stroke-width="0.8"/><polygon points="343,65 354,74 356,84 340,101 327,100 325,98 325,76" fill="none" stroke="#585858" stroke-width="0.8"/><polygon points="472,640 464,616 474,609 500,615 500,636" fill="none" stroke="#414141" stroke-width="0.8"/><polygon points="97,485 87,479 96,453 114,452 122,463 116,480" fill="none" stroke="#666666" stroke-width="0.8"/><polygon points="416,208 423,220 421,226 409,234 386,226 385,215 394,204" fill="none" stroke="#404040" stroke-width="0.8"/><polygon points="77,28 96,21 108,32 108,39 88,54 78,46" fill="none" stroke="#cbcbcb" stroke-width="0.8"/><polygon points="408,536 396,541 379,533 378,525 382,516 404,513" fill="none" stroke="#afafaf" stroke-width="0.8"/><polygon points="121,436 142,431 152,452 143,463 122,463 114,452" fill="none" stroke="#868686" stroke-width="0.8"/><polygon points="260,380 278,358 289,365 292,387 273,392" fill="none" stroke="#020202" stroke-width="0.8"/><polygon points="292,436 275,443 264,435 270,412 291,418" fill="none" stroke="#838383" stroke-width="0.8"/><polygon points="151,631 146,654 146,655 120,648 117,642 126,622 138,619" fill="none" stroke="#575757" stroke-width="0.8"/><polygon points="23,137 28,142 28,142 17,160 0,159 0,138" fill="none" stroke="#848484" stroke-width="0.8"/><polygon points="354,235 352,237 321,236 319,233 334,210 351,217" fill="none" stroke="#121212" stroke-width="0.8"/><polygon points="53,52 32,64 28,62 21,48 28,36 49,42" fill="none" stroke="#656565" stroke-width="0.8"/><polygon points="277,577 273,565 285,550 303,561 297,578" fill="none" stroke="#555555" stroke-width="0.8"/><polygon points="303,125 292,117 291,107 299,96 325,98 327,100 320,124" fill="none" stroke="#515151" stroke-width="0.8"/><polygon points="350,527 331,529 323,510 330,502 352,505 353,524" fill="none" stroke="#7f7f7f" stroke-width="0.8"/><polygon points="357,305 369,293 383,294 389,321 376,330 357,320" fill="none" stroke="#262626" stroke-width="0.8"/><polygon points="121,145 110,138 115,119 136,115 138,119 137,139" fill="none" stroke="#424242" stroke-width="0.8"/><polygon points="23,425 28,454 0,456 0,422" fill="none" stroke="#c4c4c4" stroke-width="0.8"/><polygon points="448,593 461,615 439,625 429,617 432,594" fill="none" stroke="#b1b1b1" stroke-width="0.8"/><polygon points="397,90 384,86 381,60 388,57 415,72 415,73" fill="none" stroke="#353535" stroke-width="0.8"/><polygon points="379,453 378,437 399,424 406,432 401,460" fill="none" stroke="#3b3b3b" stroke-width="0.8"/><polygon points="80,90 75,75 88,60 104,71 102,91" fill="none" stroke="#cecece" stroke-width="0.8"/><polygon points="157,202 174,200 180,204 182,209 174,230 159,232 150,216" fill="none" stroke="#848484" stroke-width="0.8"/><polygon points="486,232 472,243 455,234 455,218 474,212" fill="none" stroke="#050505" stroke-width="0.8"/><polygon points="138,551 142,564 121,579 109,563 121,543" fill="none" stroke="#5b5b5b" stroke-width="0.8"/><polygon points="156,14 139,29 125,22 123,0 155,0" fill="none" stroke="#adadad" stroke-width="0.8"/><polygon points="329,31 330,44 307,57 298,48 303,26 307,24" fill="none" stroke="#383838" stroke-width="0.8"/><polygon points="275,57 258,55 250,38 258,28 272,27 281,50" fill="none" stroke="#cecece" stroke-width="0.8"/><polygon points="33,20 26,29 13,24 17,0 26,0" fill="none" stroke="#a7a7a7" stroke-width="0.8"/><polygon points="412,166 411,178 392,188 381,180 380,165 403,155" fill="none" stroke="#828282" stroke-width="0.8"/><polygon points="179,511 188,502 205,503 211,521 202,533 181,523" fill="none" stroke="#d9d9d9" stroke-width="0.8"/><polygon points="138,518 120,539 109,532 108,511 127,504" fill="none" stroke="#858585" stroke-width="0.8"/><polygon points="58,549 53,558 31,560 22,552 30,527 43,525 55,534" fill="none" stroke="#d4d4d4" stroke-width="0.8"/><polygon points="250,170 238,158 241,146 253,142 269,154 267,165" fill="none" stroke="#262626" stroke-width="0.8"/><polygon points="260,250 269,243 286,243 293,257 289,269 276,274 262,267" fill="none" stroke="#d9d9d9" stroke-width="0.8"/><polygon points="74,364 78,385 69,394 40,386 40,364 59,356" fill="none" stroke="#626262" stroke-width="0.8"/><polygon points="84,480 68,502 51,498 50,497 53,474 65,468" fill="none" stroke="#4e4e4e" stroke-width="0.8"/><polygon points="0,293 41,306 40,320 28,330 0,326 0,293" fill="none" stroke="#424242" stroke-width="0.8"/><polygon points="176,590 172,578 187,565 202,573 200,590 192,595" fill="none" stroke="#b2b2b2" stroke-width="0.8"/><polygon points="435,464 432,483 424,487 402,476 402,461 428,457" fill="none" stroke="#e6e6e6" stroke-width="0.8"/><polygon points="410,110 411,136 403,142 385,132 384,118 403,108" fill="none" stroke="#4f4f4f" stroke-width="0.8"/><polygon points="273,657 276,646 288,640 302,653 293,673 285,672" fill="none" stroke="#717171" stroke-width="0.8"/><polygon points="276,490 285,497 281,514 264,520 256,508 261,492" fill="none" stroke="#c7c7c7" stroke-width="0.8"/><polygon points="192,355 192,333 204,327 221,341 220,354 210,362" fill="none" stroke="#2b2b2b" stroke-width="0.8"/><polygon points="424,588 432,594 429,617 410,621 409,621 404,599" fill="none" stroke="#131313" stroke-width="0.8"/><polygon points="300,494 285,497 276,490 281,467 292,466 307,480" fill="none" stroke="#f6f6f6" stroke-width="0.8"/><polygon points="22,552 31,560 26,588 0,589 0,553" fill="none" stroke="#929292" stroke-width="0.8"/><polygon points="97,214 109,231 98,248 81,244 76,232 86,216" fill="none" stroke="#555555" stroke-width="0.8"/><polygon points="136,115 115,119 104,108 105,94 126,91 137,103" fill="none" stroke="#252525" stroke-width="0.8"/><polygon points="472,640 468,645 447,650 438,642 439,625 461,615 464,616" fill="none" stroke="#3e3e3e" stroke-width="0.8"/><polygon points="31,357 40,364 40,386 33,394 0,389 0,364" fill="none" stroke="#353535" stroke-width="0.8"/><polygon points="197,85 201,87 206,111 199,119 195,120 174,101 183,88" fill="none" stroke="#373737" stroke-width="0.8"/><polygon points="325,567 327,578 320,587 303,588 297,578 303,561 308,559" fill="none" stroke="#e3e3e3" stroke-width="0.8"/><polygon points="209,29 208,30 181,38 175,33 174,28 193,0 198,0" fill="none" stroke="#2a2a2a" stroke-width="0.8"/><polygon points="445,671 436,676 419,669 418,649 438,642 447,650" fill="none" stroke="#2a2a2a" stroke-width="0.8"/><polygon points="307,57 308,66 295,79 279,75 275,57 281,50 298,48" fill="none" stroke="#717171" stroke-width="0.8"/><polygon points="106,415 121,436 114,452 96,453 86,443 89,423" fill="none" stroke="#a7a7a7" stroke-width="0.8"/><polygon points="305,284 289,269 293,257 319,253 322,258 322,276" fill="none" stroke="#ececec" stroke-width="0.8"/><polygon points="224,672 223,669 237,647 243,647 256,663 253,673 242,680" fill="none" stroke="#7a7a7a" stroke-width="0.8"/><polygon points="432,407 444,395 465,403 469,414 468,416 445,429 436,426" fill="none" stroke="#505050" stroke-width="0.8"/><polygon points="341,476 354,480 355,502 352,505 330,502 328,486" fill="none" stroke="#2b2b2b" stroke-width="0.8"/><polygon points="352,129 371,142 370,156 350,164 344,161 341,136" fill="none" stroke="#575757" stroke-width="0.8"/><polygon points="261,492 256,508 236,509 231,498 238,486 254,485" fill="none" stroke="#c9c9c9" stroke-width="0.8"/><polygon points="174,28 175,33 153,48 142,43 139,29 156,14" fill="none" stroke="#494949" stroke-width="0.8"/><polygon points="356,573 365,573 372,581 371,599 360,604 348,598 346,583" fill="none" stroke="#9c9c9c" stroke-width="0.8"/><polygon points="87,284 114,291 115,312 114,313 82,314 79,305" fill="none" stroke="#070707" stroke-width="0.8"/><polygon points="155,363 152,382 133,389 118,370 135,353" fill="none" stroke="#747474" stroke-width="0.8"/><polygon points="240,420 253,437 247,447 225,444 222,429" fill="none" stroke="#575757" stroke-width="0.8"/><polygon points="256,508 264,520 263,523 237,534 230,522 236,509" fill="none" stroke="#d9d9d9" stroke-width="0.8"/><polygon points="96,21 77,28 71,24 71,0 97,0" fill="none" stroke="#c5c5c5" stroke-width="0.8"/><polygon points="346,583 348,598 331,609 328,608 320,587 327,578" fill="none" stroke="#919191" stroke-width="0.8"/><polygon points="176,673 175,657 175,657 204,656 209,664 193,683" fill="none" stroke="#7a7a7a" stroke-width="0.8"/><polygon points="337,555 345,555 356,573 346,583 327,578 325,567" fill="none" stroke="#d6d6d6" stroke-width="0.8"/><polygon points="223,62 211,56 208,30 209,29 226,27 237,39 226,61" fill="none" stroke="#686868" stroke-width="0.8"/><polygon points="45,638 28,624 34,596 50,594 69,617" fill="none" stroke="#5e5e5e" stroke-width="0.8"/><polygon points="247,447 253,437 264,435 275,443 274,462 258,465 249,458" fill="none" stroke="#2d2d2d" stroke-width="0.8"/><polygon points="27,195 22,181 25,174 41,170 52,184 51,188 38,198" fill="none" stroke="#3a3a3a" stroke-width="0.8"/><polygon points="436,426 445,429 455,448 448,460 435,464 428,457 427,433" fill="none" stroke="#292929" stroke-width="0.8"/><polygon points="319,233 310,228 306,208 328,198 334,210" fill="none" stroke="#979797" stroke-width="0.8"/><polygon points="187,241 174,230 182,209 204,216 205,218 194,241" fill="none" stroke="#767676" stroke-width="0.8"/><polygon points="210,362 220,354 242,365 244,370 221,387 211,380" fill="none" stroke="#575757" stroke-width="0.8"/><polygon points="28,142 49,131 59,142 55,155 44,160 28,142" fill="none" stroke="#c9c9c9" stroke-width="0.8"/><polygon points="28,142 23,137 22,118 30,110 44,112 50,121 49,131" fill="none" stroke="#bababa" stroke-width="0.8"/><polygon points="215,137 210,151 197,154 189,149 186,131 195,120 199,119" fill="none" stroke="#dedede" stroke-width="0.8"/><polygon points="256,216 259,195 272,190 286,205 281,215 263,220" fill="none" stroke="#d2d2d2" stroke-width="0.8"/><polygon points="181,363 192,355 210,362 211,380 188,390 184,388" fill="none" stroke="#565656" stroke-width="0.8"/><polygon points="83,121 104,108 115,119 110,138 102,140" fill="none" stroke="#404040" stroke-width="0.8"/><polygon points="30,527 22,552 0,553 0,519 19,518" fill="none" stroke="#868686" stroke-width="0.8"/><polygon points="174,28 156,14 155,0 193,0" fill="none" stroke="#616161" stroke-width="0.8"/><polygon points="405,568 397,569 391,559 396,541 408,536 415,539 418,554" fill="none" stroke="#e9e9e9" stroke-width="0.8"/><polygon points="164,265 155,239 159,232 174,230 187,241 174,264 167,266" fill="none" stroke="#1a1a1a" stroke-width="0.8"/><polygon points="150,300 140,286 146,270 164,265 167,266 167,296" fill="none" stroke="#b8b8b8" stroke-width="0.8"/><polygon points="23,225 26,226 30,239 19,254 0,251 0,229" fill="none" stroke="#666666" stroke-width="0.8"/><polygon points="465,21 462,25 442,31 427,15 427,0 463,0" fill="none" stroke="#919191" stroke-width="0.8"/><polygon points="78,664 109,670 116,683 114,700 73,700" fill="none" stroke="#939393" stroke-width="0.8"/><polygon points="298,151 280,147 278,128 292,117 303,125" fill="none" stroke="#ededed" stroke-width="0.8"/><polygon points="32,64 41,83 24,93 21,92 15,72 28,62" fill="none" stroke="#afafaf" stroke-width="0.8"/><polygon points="472,47 462,25 465,21 500,21 500,38" fill="none" stroke="#acacac" stroke-width="0.8"/><polygon points="294,174 276,176 267,165 269,154 280,147 298,151 300,153" fill="none" stroke="#303030" stroke-width="0.8"/><polygon points="50,497 51,498 43,525 30,527 19,518 27,495" fill="none" stroke="#dbdbdb" stroke-width="0.8"/><polygon points="431,312 417,310 409,289 420,278 444,286 445,289" fill="none" stroke="#3c3c3c" stroke-width="0.8"/><polygon points="131,216 123,230 109,231 97,214 102,205 119,198 123,199" fill="none" stroke="#f8f8f8" stroke-width="0.8"/><polygon points="34,416 33,394 40,386 69,394 70,412 54,424" fill="none" stroke="#525252" stroke-width="0.8"/><polygon points="127,504 108,511 100,506 97,485 116,480 129,494" fill="none" stroke="#2f2f2f" stroke-width="0.8"/><polygon points="198,633 177,638 169,627 172,617 193,613 199,619" fill="none" stroke="#acacac" stroke-width="0.8"/><polygon points="72,100 53,95 49,85 61,72 75,75 80,90" fill="none" stroke="#c8c8c8" stroke-width="0.8"/><polygon points="459,534 471,544 472,549 451,566 441,561 444,538" fill="none" stroke="#1a1a1a" stroke-width="0.8"/><polygon points="130,256 146,270 140,286 119,287 116,263" fill="none" stroke="#9c9c9c" stroke-width="0.8"/><polygon points="66,202 71,201 86,216 76,232 59,228 54,219" fill="none" stroke="#4d4d4d" stroke-width="0.8"/><polygon points="37,665 47,654 78,663 78,664 73,700 40,700" fill="none" stroke="#0b0b0b" stroke-width="0.8"/><polygon points="278,128 280,147 269,154 253,142 260,123" fill="none" stroke="#777777" stroke-width="0.8"/><polygon points="319,253 293,257 286,243 291,233 310,228 319,233 321,236" fill="none" stroke="#a6a6a6" stroke-width="0.8"/><polygon points="172,617 165,604 176,590 192,595 193,613" fill="none" stroke="#212121" stroke-width="0.8"/><polygon points="90,537 85,550 58,549 55,534 77,518" fill="none" stroke="#4a4a4a" stroke-width="0.8"/><polygon points="486,143 474,122 478,116 500,113 500,145" fill="none" stroke="#2f2f2f" stroke-width="0.8"/><polygon points="47,654 37,665 0,661 0,629 28,624 45,638" fill="none" stroke="#878787" stroke-width="0.8"/><polygon points="137,139 138,119 162,121 166,129 160,143 149,147" fill="none" stroke="#323232" stroke-width="0.8"/><polygon points="156,488 177,476 181,477 188,502 179,511 161,506" fill="none" stroke="#acacac" stroke-width="0.8"/><polygon points="247,613 229,623 216,613 218,598 228,591 236,593" fill="none" stroke="#eeeeee" stroke-width="0.8"/><polygon points="427,95 417,74 447,70 445,94" fill="none" stroke="#727272" stroke-width="0.8"/><polygon points="391,559 374,557 369,548 379,533 396,541" fill="none" stroke="#b3b3b3" stroke-width="0.8"/><polygon points="126,91 105,94 102,91 104,71 123,62 132,74" fill="none" stroke="#b9b9b9" stroke-width="0.8"/><polygon points="256,663 243,647 259,633 276,646 273,657" fill="none" stroke="#030303" stroke-width="0.8"/><polygon points="44,112 53,95 72,100 75,115 50,121" fill="none" stroke="#4d4d4d" stroke-width="0.8"/><polygon points="33,394 34,416 23,425 0,422 0,389" fill="none" stroke="#727272" stroke-width="0.8"/><polygon points="477,436 468,416 469,414 500,411 500,434" fill="none" stroke="#5e5e5e" stroke-width="0.8"/><polygon points="169,103 174,101 195,120 186,131 166,129 162,121" fill="none" stroke="#ececec" stroke-width="0.8"/><polygon points="233,120 256,117 260,123 253,142 241,146 229,133" fill="none" stroke="#b5b5b5" stroke-width="0.8"/><polygon points="193,472 181,477 177,476 166,452 180,439 194,443 200,453" fill="none" stroke="#c2c2c2" stroke-width="0.8"/><polygon points="448,116 436,120 420,107 427,95 445,94 451,100" fill="none" stroke="#f1f1f1" stroke-width="0.8"/><polygon points="86,443 96,453 87,479 84,480 65,468 66,449" fill="none" stroke="#606060" stroke-width="0.8"/><polygon points="273,657 285,672 269,685 253,673 256,663" fill="none" stroke="#848484" stroke-width="0.8"/><polygon points="78,663 47,654 45,638 69,617 74,617 86,625 89,634" fill="none" stroke="#e2e2e2" stroke-width="0.8"/><polygon points="125,22 139,29 142,43 124,57 108,39 108,32" fill="none" stroke="#cecece" stroke-width="0.8"/><polygon points="357,320 376,330 375,346 354,356 339,347 342,330" fill="none" stroke="#a6a6a6" stroke-width="0.8"/><polygon points="203,269 191,274 174,264 187,241 194,241 205,249" fill="none" stroke="#2d2d2d" stroke-width="0.8"/><polygon points="467,349 438,347 435,343 440,324 466,319 468,320 470,324" fill="none" stroke="#7d7d7d" stroke-width="0.8"/><polygon points="143,674 146,655 146,654 175,657 176,673 157,690" fill="none" stroke="#323232" stroke-width="0.8"/><polygon points="291,631 288,640 276,646 259,633 259,624 280,616" fill="none" stroke="#b5b5b5" stroke-width="0.8"/><polygon points="255,559 255,552 268,537 283,544 285,550 273,565" fill="none" stroke="#6d6d6d" stroke-width="0.8"/><polygon points="344,652 337,669 329,671 325,670 314,652 321,640 334,639" fill="none" stroke="#505050" stroke-width="0.8"/><polygon points="146,270 130,256 133,244 155,239 164,265" fill="none" stroke="#535353" stroke-width="0.8"/><polygon points="404,324 412,343 404,356 388,358 375,346 376,330 389,321" fill="none" stroke="#6f6f6f" stroke-width="0.8"/><polygon points="407,255 409,234 421,226 440,245 439,252 418,262" fill="none" stroke="#444444" stroke-width="0.8"/><polygon points="148,520 161,506 179,511 181,523 167,541 155,536" fill="none" stroke="#bfbfbf" stroke-width="0.8"/><polygon points="392,23 366,32 361,25 363,0 391,0" fill="none" stroke="#696969" stroke-width="0.8"/><polygon points="367,473 369,461 379,453 401,460 402,461 402,476 393,486 384,487" fill="none" stroke="#d4d4d4" stroke-width="0.8"/><polygon points="472,446 481,461 468,479 467,479 448,460 455,448" fill="none" stroke="#454545" stroke-width="0.8"/><polygon points="152,452 166,452 177,476 156,488 149,485 143,463" fill="none" stroke="#494949" stroke-width="0.8"/><polygon points="84,154 71,168 55,155 59,142 72,139" fill="none" stroke="#a8a8a8" stroke-width="0.8"/><polygon points="363,651 363,629 384,625 388,649 364,652" fill="none" stroke="#222222" stroke-width="0.8"/><polygon points="270,99 258,109 240,91 248,78 270,84" fill="none" stroke="#494949" stroke-width="0.8"/><polygon points="481,491 468,479 481,461 500,462 500,489" fill="none" stroke="#575757" stroke-width="0.8"/><polygon points="491,524 474,510 481,491 500,489 500,524" fill="none" stroke="#b6b6b6" stroke-width="0.8"/><polygon points="355,545 369,548 374,557 365,573 356,573 345,555" fill="none" stroke="#8e8e8e" stroke-width="0.8"/><polygon points="251,582 236,593 228,591 224,575 234,565 248,566" fill="none" stroke="#e9e9e9" stroke-width="0.8"/><polygon points="231,94 226,109 206,111 201,87 218,83" fill="none" stroke="#8f8f8f" stroke-width="0.8"/><polygon points="157,690 176,673 193,683 197,700 157,700" fill="none" stroke="#1b1b1b" stroke-width="0.8"/><polygon points="481,461 472,446 477,436 500,434 500,462" fill="none" stroke="#bbbbbb" stroke-width="0.8"/><polygon points="229,133 241,146 238,158 223,164 210,151 215,137" fill="none" stroke="#b3b3b3" stroke-width="0.8"/><polygon points="471,50 482,67 473,83 449,68 450,62" fill="none" stroke="#888888" stroke-width="0.8"/><polygon points="442,378 468,370 471,373 474,390 465,403 444,395" fill="none" stroke="#afafaf" stroke-width="0.8"/><polygon points="343,65 342,54 365,39 379,59 354,74" fill="none" stroke="#c5c5c5" stroke-width="0.8"/><polygon points="19,254 28,270 0,293 0,293 0,251" fill="none" stroke="#929292" stroke-width="0.8"/><polygon points="398,417 399,424 378,437 365,429 367,406 371,403" fill="none" stroke="#242424" stroke-width="0.8"/><polygon points="123,165 121,145 137,139 149,147 146,162 131,168" fill="none" stroke="#c7c7c7" stroke-width="0.8"/><polygon points="52,253 37,273 28,270 19,254 30,239 48,245" fill="none" stroke="#6c6c6c" stroke-width="0.8"/><polygon points="108,410 129,401 147,420 142,431 121,436 106,415" fill="none" stroke="#393939" stroke-width="0.8"/><polygon points="459,534 444,538 433,530 432,516 450,506 461,514" fill="none" stroke="#a7a7a7" stroke-width="0.8"/><polygon points="166,129 186,131 189,149 173,155 160,143" fill="none" stroke="#111111" stroke-width="0.8"/><polygon points="231,498 211,495 210,481 225,469 230,471 238,486" fill="none" stroke="#494949" stroke-width="0.8"/><polygon points="477,668 468,645 472,640 500,636 500,669" fill="none" stroke="#f4f4f4" stroke-width="0.8"/><polygon points="210,481 193,472 200,453 219,454 225,469" fill="none" stroke="#060606" stroke-width="0.8"/><polygon points="337,456 346,448 369,461 367,473 354,480 341,476" fill="none" stroke="#2f2f2f" stroke-width="0.8"/><polygon points="276,176 272,190 259,195 246,185 250,170 267,165" fill="none" stroke="#a7a7a7" stroke-width="0.8"/><polygon points="286,205 272,190 276,176 294,174 301,182 296,202" fill="none" stroke="#f6f6f6" stroke-width="0.8"/><polygon points="144,312 150,300 167,296 177,302 176,326 165,332 149,326" fill="none" stroke="#4e4e4e" stroke-width="0.8"/><polygon points="277,577 297,578 303,588 298,600 283,605 268,591" fill="none" stroke="#dadada" stroke-width="0.8"/><polygon points="336,296 335,285 357,270 369,293 357,305" fill="none" stroke="#aaaaaa" stroke-width="0.8"/><polygon points="221,173 234,190 230,198 210,198 202,185 202,183" fill="none" stroke="#c8c8c8" stroke-width="0.8"/><polygon points="381,605 397,596 404,599 409,621 384,625" fill="none" stroke="#bfbfbf" stroke-width="0.8"/><polygon points="478,585 475,582 482,557 500,557 500,586" fill="none" stroke="#757575" stroke-width="0.8"/><polygon points="427,95 420,107 410,110 403,108 397,90 415,73 417,74" fill="none" stroke="#acacac" stroke-width="0.8"/><polygon points="230,312 233,297 246,290 259,299 258,316 239,322" fill="none" stroke="#424242" stroke-width="0.8"/><polygon points="467,349 467,349 470,324 500,329 500,349" fill="none" stroke="#afafaf" stroke-width="0.8"/><polygon points="456,142 436,146 431,138 436,120 448,116 461,126" fill="none" stroke="#878787" stroke-width="0.8"/><polygon points="115,312 144,312 149,326 134,342 116,332 114,313" fill="none" stroke="#171717" stroke-width="0.8"/><polygon points="293,674 311,679 314,700 292,700" fill="none" stroke="#888888" stroke-width="0.8"/><polygon points="112,607 86,625 74,617 87,588 111,595" fill="none" stroke="#bcbcbc" stroke-width="0.8"/><polygon points="116,683 143,674 157,690 157,700 114,700" fill="none" stroke="#d9d9d9" stroke-width="0.8"/><polygon points="109,670 78,664 78,663 89,634 117,642 120,648" fill="none" stroke="#c8c8c8" stroke-width="0.8"/><polygon points="174,176 174,200 157,202 149,190 159,173 169,171" fill="none" stroke="#262626" stroke-width="0.8"/><polygon points="311,679 325,670 329,671 331,700 314,700" fill="none" stroke="#e3e3e3" stroke-width="0.8"/><polygon points="147,600 138,619 126,622 112,607 111,595 120,586 145,597" fill="none" stroke="#acacac" stroke-width="0.8"/><polygon points="264,435 253,437 240,420 243,408 270,411 270,412" fill="none" stroke="#c8c8c8" stroke-width="0.8"/><polygon points="83,184 89,185 102,205 97,214 86,216 71,201" fill="none" stroke="#c5c5c5" stroke-width="0.8"/><polygon points="278,128 260,123 256,117 258,109 270,99 291,107 292,117" fill="none" stroke="#cecece" stroke-width="0.8"/><polygon points="155,536 167,541 169,546 155,571 142,564 138,551" fill="none" stroke="#b4b4b4" stroke-width="0.8"/><polygon points="54,424 70,412 89,423 86,443 66,449 55,440" fill="none" stroke="#525252" stroke-width="0.8"/><polygon points="13,24 0,27 0,0 17,0" fill="none" stroke="#7f7f7f" stroke-width="0.8"/><polygon points="180,439 176,424 193,408 208,414 212,424 194,443" fill="none" stroke="#828282" stroke-width="0.8"/><polygon points="86,280 103,258 116,263 119,287 114,291 87,284" fill="none" stroke="#adadad" stroke-width="0.8"/><polygon points="22,118 23,137 0,138 0,114" fill="none" stroke="#b9b9b9" stroke-width="0.8"/><polygon points="226,109 233,120 229,133 215,137 199,119 206,111" fill="none" stroke="#606060" stroke-width="0.8"/><polygon points="300,153 298,151 303,125 320,124 328,133 315,154" fill="none" stroke="#6c6c6c" stroke-width="0.8"/><polygon points="336,296 357,305 357,320 342,330 322,312" fill="none" stroke="#545454" stroke-width="0.8"/><polygon points="233,297 230,312 208,316 201,301 218,287" fill="none" stroke="#393939" stroke-width="0.8"/><polygon points="361,25 366,32 365,39 342,54 330,44 329,31 336,24" fill="none" stroke="#4d4d4d" stroke-width="0.8"/><polygon points="28,270 37,273 48,289 48,297 41,306 0,293" fill="none" stroke="#353535" stroke-width="0.8"/><polygon points="44,112 30,110 24,93 41,83 49,85 53,95" fill="none" stroke="#1e1e1e" stroke-width="0.8"/><polygon points="48,289 72,272 86,280 87,284 79,305 48,297" fill="none" stroke="#505050" stroke-width="0.8"/><polygon points="21,92 24,93 30,110 22,118 0,114 0,98" fill="none" stroke="#b2b2b2" stroke-width="0.8"/><polygon points="472,47 471,50 450,62 438,46 442,31 462,25" fill="none" stroke="#d2d2d2" stroke-width="0.8"/><polygon points="486,232 474,212 478,201 500,198 500,232" fill="none" stroke="#cdcdcd" stroke-width="0.8"/><polygon points="207,570 202,573 187,565 185,554 203,539 213,548" fill="none" stroke="#d1d1d1" stroke-width="0.8"/><polygon points="321,181 329,194 328,198 306,208 296,202 301,182" fill="none" stroke="#bebebe" stroke-width="0.8"/><polygon points="337,555 325,567 308,559 313,540 326,536" fill="none" stroke="#3c3c3c" stroke-width="0.8"/><polygon points="436,146 434,159 412,166 403,155 403,142 411,136 431,138" fill="none" stroke="#a5a5a5" stroke-width="0.8"/><polygon points="34,596 26,588 31,560 53,558 61,577 50,594" fill="none" stroke="#474747" stroke-width="0.8"/><polygon points="169,103 162,121 138,119 136,115 137,103 154,93" fill="none" stroke="#666666" stroke-width="0.8"/><polygon points="230,198 234,190 246,185 259,195 256,216 253,217 233,208" fill="none" stroke="#c5c5c5" stroke-width="0.8"/><polygon points="409,676 419,669 436,676 435,700 410,700" fill="none" stroke="#dfdfdf" stroke-width="0.8"/><polygon points="474,89 473,83 482,67 500,66 500,93" fill="none" stroke="#494949" stroke-width="0.8"/><polygon points="133,389 129,401 108,410 96,388 113,370 118,370" fill="none" stroke="#a4a4a4" stroke-width="0.8"/><polygon points="363,651 344,652 334,639 341,627 358,625 363,629" fill="none" stroke="#4f4f4f" stroke-width="0.8"/><polygon points="378,236 354,235 351,217 363,205 385,215 386,226" fill="none" stroke="#a2a2a2" stroke-width="0.8"/><polygon points="408,391 416,375 436,372 442,378 444,395 432,407 410,400" fill="none" stroke="#bbbbbb" stroke-width="0.8"/><polygon points="230,312 239,322 236,332 221,341 204,327 208,316" fill="none" stroke="#c4c4c4" stroke-width="0.8"/><polygon points="291,631 280,616 283,605 298,600 311,617 309,623" fill="none" stroke="#efefef" stroke-width="0.8"/><polygon points="307,57 330,44 342,54 343,65 325,76 308,66" fill="none" stroke="#cacaca" stroke-width="0.8"/><polygon points="34,596 28,624 0,629 0,589 26,588" fill="none" stroke="#cacaca" stroke-width="0.8"/><polygon points="156,488 161,506 148,520 138,518 127,504 129,494 149,485" fill="none" stroke="#535353" stroke-width="0.8"/><polygon points="352,184 329,194 321,181 325,165 344,161 350,164" fill="none" stroke="#bdbdbd" stroke-width="0.8"/><polygon points="100,506 108,511 109,532 90,537 77,518 78,517" fill="none" stroke="#5b5b5b" stroke-width="0.8"/><polygon points="152,382 155,363 165,358 181,363 184,388 164,393" fill="none" stroke="#2d2d2d" stroke-width="0.8"/><polygon points="83,184 71,170 71,168 84,154 93,154 105,171 89,185" fill="none" stroke="#acacac" stroke-width="0.8"/><polygon points="230,198 233,208 221,224 205,218 204,216 210,198" fill="none" stroke="#4f4f4f" stroke-width="0.8"/><polygon points="298,600 303,588 320,587 328,608 311,617" fill="none" stroke="#525252" stroke-width="0.8"/><polygon points="210,151 223,164 221,173 202,183 194,175 197,154" fill="none" stroke="#9a9a9a" stroke-width="0.8"/><polygon points="328,486 330,502 323,510 311,510 300,494 307,480 312,478" fill="none" stroke="#545454" stroke-width="0.8"/><polygon points="399,424 398,417 410,400 432,407 436,426 427,433 406,432" fill="none" stroke="#303030" stroke-width="0.8"/><polygon points="115,312 114,291 119,287 140,286 150,300 144,312" fill="none" stroke="#3e3e3e" stroke-width="0.8"/><polygon points="130,256 116,263 103,258 98,248 109,231 123,230 133,244" fill="none" stroke="#a3a3a3" stroke-width="0.8"/><polygon points="78,46 88,54 88,60 75,75 61,72 55,54" fill="none" stroke="#8b8b8b" stroke-width="0.8"/><polygon points="208,414 224,396 242,405 243,408 240,420 222,429 212,424" fill="none" stroke="#b6b6b6" stroke-width="0.8"/><polygon points="365,39 366,32 392,23 404,33 388,57 381,60 379,59" fill="none" stroke="#3c3c3c" stroke-width="0.8"/><polygon points="55,54 61,72 49,85 41,83 32,64 53,52" fill="none" stroke="#575757" stroke-width="0.8"/><polygon points="226,109 231,94 240,91 258,109 256,117 233,120" fill="none" stroke="#525252" stroke-width="0.8"/><polygon points="17,160 25,174 22,181 0,183 0,159" fill="none" stroke="#3b3b3b" stroke-width="0.8"/><polygon points="276,490 261,492 254,485 258,465 274,462 281,467" fill="none" stroke="#7c7c7c" stroke-width="0.8"/><polygon points="100,506 78,517 68,502 84,480 87,479 97,485" fill="none" stroke="#282828" stroke-width="0.8"/><polygon points="471,373 468,370 467,349 500,349 500,368" fill="none" stroke="#b0b0b0" stroke-width="0.8"/><polygon points="183,88 174,101 169,103 154,93 153,75 160,68 169,68" fill="none" stroke="#5b5b5b" stroke-width="0.8"/><polygon points="236,593 251,582 268,591 250,614 247,613" fill="none" stroke="#6e6e6e" stroke-width="0.8"/><polygon points="48,18 33,20 26,0 51,0" fill="none" stroke="#939393" stroke-width="0.8"/><polygon points="256,379 242,405 224,396 221,387 244,370" fill="none" stroke="#e5e5e5" stroke-width="0.8"/><polygon points="387,675 392,671 409,676 410,700 387,700" fill="none" stroke="#8e8e8e" stroke-width="0.8"/><polygon points="23,225 17,205 27,195 38,198 43,215 26,226" fill="none" stroke="#595959" stroke-width="0.8"/><polygon points="322,425 337,425 347,436 346,448 337,456 321,455 310,444" fill="none" stroke="#2a2a2a" stroke-width="0.8"/><polygon points="346,448 347,436 365,429 378,437 379,453 369,461" fill="none" stroke="#6e6e6e" stroke-width="0.8"/><polygon points="157,202 150,216 131,216 123,199 136,188 149,190" fill="none" stroke="#7a7a7a" stroke-width="0.8"/><polygon points="372,581 392,578 397,596 381,605 371,599" fill="none" stroke="#7e7e7e" stroke-width="0.8"/><polygon points="146,654 151,631 169,627 177,638 175,657 175,657" fill="none" stroke="#4b4b4b" stroke-width="0.8"/><polygon points="421,226 423,220 447,212 455,218 455,234 440,245" fill="none" stroke="#292929" stroke-width="0.8"/><polygon points="442,31 438,46 421,50 404,33 427,15" fill="none" stroke="#333333" stroke-width="0.8"/><polygon points="165,604 147,600 145,597 156,572 172,578 176,590" fill="none" stroke="#a2a2a2" stroke-width="0.8"/><polygon points="243,408 242,405 256,379 260,380 273,392 270,411" fill="none" stroke="#b6b6b6" stroke-width="0.8"/><polygon points="448,593 432,594 424,588 424,585 437,562 441,561 451,566 457,579" fill="none" stroke="#646464" stroke-width="0.8"/><polygon points="148,520 155,536 138,551 121,543 120,539 138,518" fill="none" stroke="#888888" stroke-width="0.8"/><polygon points="197,61 211,56 223,62 218,83 201,87 197,85" fill="none" stroke="#aeaeae" stroke-width="0.8"/><polygon points="435,343 438,347 436,372 416,375 404,356 412,343" fill="none" stroke="#c3c3c3" stroke-width="0.8"/><polygon points="482,557 472,549 471,544 491,524 500,524 500,557" fill="none" stroke="#d4d4d4" stroke-width="0.8"/><polygon points="350,256 322,258 319,253 321,236 352,237" fill="none" stroke="#282828" stroke-width="0.8"/><polygon points="223,669 209,664 204,656 206,642 227,636 237,647" fill="none" stroke="#c2c2c2" stroke-width="0.8"/><polygon points="469,414 465,403 474,390 500,394 500,411" fill="none" stroke="#8d8d8d" stroke-width="0.8"/><polygon points="397,596 392,578 397,569 405,568 424,585 424,588 404,599" fill="none" stroke="#717171" stroke-width="0.8"/><polygon points="423,220 416,208 423,190 440,187 446,193 447,212" fill="none" stroke="#1d1d1d" stroke-width="0.8"/><polygon points="274,293 276,274 289,269 305,284 302,298 288,304" fill="none" stroke="#7b7b7b" stroke-width="0.8"/><polygon points="72,272 48,289 37,273 52,253 68,260" fill="none" stroke="#f8f8f8" stroke-width="0.8"/><polygon points="384,259 358,267 350,256 352,237 354,235 378,236" fill="none" stroke="#1b1b1b" stroke-width="0.8"/><polygon points="436,372 438,347 467,349 467,349 468,370 442,378" fill="none" stroke="#303030" stroke-width="0.8"/><polygon points="398,417 371,403 376,384 379,382 408,391 410,400" fill="none" stroke="#898989" stroke-width="0.8"/><polygon points="374,557 391,559 397,569 392,578 372,581 365,573" fill="none" stroke="#929292" stroke-width="0.8"/><polygon points="210,481 211,495 205,503 188,502 181,477 193,472" fill="none" stroke="#5b5b5b" stroke-width="0.8"/><polygon points="74,364 59,356 61,333 79,325 97,347 96,349" fill="none" stroke="#d3d3d3" stroke-width="0.8"/><polygon points="436,146 456,142 469,156 468,164 442,169 434,159" fill="none" stroke="#9f9f9f" stroke-width="0.8"/><polygon points="259,299 274,293 288,304 285,320 266,324 258,316" fill="none" stroke="#cfcfcf" stroke-width="0.8"/><polygon points="435,343 412,343 404,324 417,310 431,312 440,324" fill="none" stroke="#131313" stroke-width="0.8"/><polygon points="406,510 393,486 402,476 424,487 419,506" fill="none" stroke="#737373" stroke-width="0.8"/><polygon points="314,411 302,408 297,390 322,377 334,388" fill="none" stroke="#888888" stroke-width="0.8"/><polygon points="255,552 255,559 248,566 234,565 226,548 237,536" fill="none" stroke="#595959" stroke-width="0.8"/><polygon points="17,205 23,225 0,229 0,203" fill="none" stroke="#2b2b2b" stroke-width="0.8"/><polygon points="445,671 447,650 468,645 477,668 467,679" fill="none" stroke="#dadada" stroke-width="0.8"/><polygon points="291,107 270,99 270,84 279,75 295,79 299,96" fill="none" stroke="#525252" stroke-width="0.8"/><polygon points="253,217 256,216 263,220 269,243 260,250 247,246 242,233" fill="none" stroke="#6e6e6e" stroke-width="0.8"/><polygon points="181,363 165,358 165,332 176,326 192,333 192,355" fill="none" stroke="#939393" stroke-width="0.8"/><polygon points="288,640 291,631 309,623 321,640 314,652 302,653" fill="none" stroke="#898989" stroke-width="0.8"/><polygon points="466,319 455,293 474,284 488,298 468,320" fill="none" stroke="#e2e2e2" stroke-width="0.8"/><polygon points="206,642 204,656 175,657 177,638 198,633" fill="none" stroke="#6a6a6a" stroke-width="0.8"/><polygon points="263,345 266,324 285,320 293,331 277,354" fill="none" stroke="#e7e7e7" stroke-width="0.8"/><polygon points="322,276 322,258 350,256 358,267 357,270 335,285" fill="none" stroke="#9a9a9a" stroke-width="0.8"/><polygon points="421,50 415,72 388,57 404,33 404,33" fill="none" stroke="#363636" stroke-width="0.8"/><polygon points="337,456 341,476 328,486 312,478 321,455" fill="none" stroke="#989898" stroke-width="0.8"/><polygon points="369,548 355,545 350,527 353,524 378,525 379,533" fill="none" stroke="#848484" stroke-width="0.8"/><polygon points="232,265 217,276 203,269 205,249 218,246 232,258" fill="none" stroke="#565656" stroke-width="0.8"/><polygon points="72,100 80,90 102,91 105,94 104,108 83,121 81,121 75,115" fill="none" stroke="#8d8d8d" stroke-width="0.8"/><polygon points="381,180 362,191 352,184 350,164 370,156 380,165" fill="none" stroke="#c9c9c9" stroke-width="0.8"/><polygon points="104,71 88,60 88,54 108,39 124,57 123,62" fill="none" stroke="#484848" stroke-width="0.8"/><polygon points="296,202 306,208 310,228 291,233 281,215 286,205" fill="none" stroke="#b9b9b9" stroke-width="0.8"/><polygon points="23,425 34,416 54,424 55,440 30,455 28,454" fill="none" stroke="#878787" stroke-width="0.8"/><polygon points="478,201 469,188 472,172 500,172 500,198" fill="none" stroke="#8f8f8f" stroke-width="0.8"/><polygon points="28,330 31,357 0,364 0,326" fill="none" stroke="#b4b4b4" stroke-width="0.8"/><polygon points="305,284 322,276 335,285 336,296 322,312 320,313 302,298" fill="none" stroke="#9d9d9d" stroke-width="0.8"/><polygon points="125,22 108,32 96,21 97,0 123,0" fill="none" stroke="#a0a0a0" stroke-width="0.8"/><polygon points="68,260 52,253 48,245 59,228 76,232 81,244" fill="none" stroke="#dbdbdb" stroke-width="0.8"/><polygon points="419,506 432,516 433,530 415,539 408,536 404,513 406,510" fill="none" stroke="#afafaf" stroke-width="0.8"/><polygon points="52,184 71,170 83,184 71,201 66,202 51,188" fill="none" stroke="#c7c7c7" stroke-width="0.8"/><polygon points="53,474 50,497 27,495 21,486 33,464" fill="none" stroke="#b2b2b2" stroke-width="0.8"/><polygon points="329,671 337,669 350,678 345,700 331,700" fill="none" stroke="#cbcbcb" stroke-width="0.8"/><polygon points="436,676 445,671 467,679 468,700 435,700" fill="none" stroke="#4b4b4b" stroke-width="0.8"/><polygon points="355,545 345,555 337,555 326,536 331,529 350,527" fill="none" stroke="#dcdcdc" stroke-width="0.8"/><polygon points="321,181 301,182 294,174 300,153 315,154 325,165" fill="none" stroke="#464646" stroke-width="0.8"/><polygon points="129,401 133,389 152,382 164,393 159,415 147,420" fill="none" stroke="#595959" stroke-width="0.8"/><polygon points="226,27 209,29 198,0 238,0" fill="none" stroke="#a3a3a3" stroke-width="0.8"/><polygon points="251,582 248,566 255,559 273,565 277,577 268,591 268,591" fill="none" stroke="#cccccc" stroke-width="0.8"/><polygon points="165,604 172,617 169,627 151,631 138,619 147,600" fill="none" stroke="#373737" stroke-width="0.8"/><polygon points="322,425 314,411 334,388 335,388 346,404 337,425" fill="none" stroke="#242424" stroke-width="0.8"/><polygon points="208,30 211,56 197,61 185,56 181,38" fill="none" stroke="#101010" stroke-width="0.8"/><polygon points="361,25 336,24 334,0 363,0" fill="none" stroke="#b7b7b7" stroke-width="0.8"/><polygon points="229,623 227,636 206,642 198,633 199,619 216,613" fill="none" stroke="#cacaca" stroke-width="0.8"/><polygon points="71,24 77,28 78,46 55,54 53,52 49,42 56,26" fill="none" stroke="#464646" stroke-width="0.8"/><polygon points="404,356 416,375 408,391 379,382 388,358" fill="none" stroke="#6b6b6b" stroke-width="0.8"/><polygon points="260,250 262,267 247,276 232,265 232,258 247,246" fill="none" stroke="#9a9a9a" stroke-width="0.8"/><polygon points="256,379 244,370 242,365 251,348 263,345 277,354 278,358 260,380" fill="none" stroke="#707070" stroke-width="0.8"/><polygon points="357,270 358,267 384,259 387,261 391,287 383,294 369,293" fill="none" stroke="#e3e3e3" stroke-width="0.8"/><polygon points="246,185 234,190 221,173 223,164 238,158 250,170" fill="none" stroke="#c1c1c1" stroke-width="0.8"/><polygon points="354,480 367,473 384,487 375,503 355,502" fill="none" stroke="#262626" stroke-width="0.8"/><polygon points="387,261 384,259 378,236 386,226 409,234 407,255" fill="none" stroke="#bfbfbf" stroke-width="0.8"/><polygon points="83,121 102,140 93,154 84,154 72,139 81,121" fill="none" stroke="#c4c4c4" stroke-width="0.8"/><polygon points="350,678 365,675 368,700 345,700" fill="none" stroke="#afafaf" stroke-width="0.8"/><polygon points="411,178 423,190 416,208 394,204 392,188" fill="none" stroke="#1b1b1b" stroke-width="0.8"/><polygon points="247,276 246,290 233,297 218,287 217,276 232,265" fill="none" stroke="#030303" stroke-width="0.8"/><polygon points="477,436 472,446 455,448 445,429 468,416" fill="none" stroke="#181818" stroke-width="0.8"/><polygon points="486,143 469,156 456,142 461,126 474,122" fill="none" stroke="#ababab" stroke-width="0.8"/><polygon points="197,61 197,85 183,88 169,68 185,56" fill="none" stroke="#1b1b1b" stroke-width="0.8"/><polygon points="116,683 109,670 120,648 146,655 143,674" fill="none" stroke="#9e9e9e" stroke-width="0.8"/><polygon points="240,91 231,94 218,83 223,62 226,61 246,70 248,78" fill="none" stroke="#a7a7a7" stroke-width="0.8"/><polygon points="372,109 384,118 385,132 371,142 352,129 354,118" fill="none" stroke="#7c7c7c" stroke-width="0.8"/><polygon points="409,289 391,287 387,261 407,255 418,262 420,278" fill="none" stroke="#aaaaaa" stroke-width="0.8"/><polygon points="96,388 78,385 74,364 96,349 113,370" fill="none" stroke="#4f4f4f" stroke-width="0.8"/><polygon points="213,548 226,548 234,565 224,575 207,570" fill="none" stroke="#adadad" stroke-width="0.8"/><polygon points="263,523 268,537 255,552 237,536 237,534" fill="none" stroke="#cbcbcb" stroke-width="0.8"/><polygon points="70,412 69,394 78,385 96,388 108,410 106,415 89,423" fill="none" stroke="#aaaaaa" stroke-width="0.8"/><polygon points="348,598 360,604 358,625 341,627 331,609" fill="none" stroke="#cccccc" stroke-width="0.8"/><polygon points="81,244 98,248 103,258 86,280 72,272 68,260" fill="none" stroke="#111111" stroke-width="0.8"/><polygon points="404,324 389,321 383,294 391,287 409,289 417,310" fill="none" stroke="#3c3c3c" stroke-width="0.8"/><polygon points="232,258 218,246 224,231 242,233 247,246" fill="#525252"/><polygon points="392,671 387,675 366,674 364,652 388,649 391,650" fill="#2f2f2f"/><polygon points="445,94 447,70 449,68 473,83 474,89 470,95 451,100" fill="#747474"/><polygon points="470,324 468,320 488,298 500,298 500,329" fill="#e2e2e2"/><polygon points="481,491 474,510 461,514 450,506 449,493 467,479 468,479" fill="#686868"/><polygon points="298,48 281,50 272,27 279,19 303,26" fill="#acacac"/><polygon points="230,471 249,458 258,465 254,485 238,486" fill="#a6a6a6"/><polygon points="149,485 129,494 116,480 122,463 143,463" fill="#585858"/><polygon points="478,116 470,95 474,89 500,93 500,113" fill="#2e2e2e"/><polygon points="114,313 116,332 97,347 79,325 82,314" fill="#3a3a3a"/><polygon points="242,680 253,673 269,685 269,700 242,700" fill="#595959"/><polygon points="370,156 371,142 385,132 403,142 403,155 380,165" fill="#959595"/><polygon points="193,683 209,664 223,669 224,672 214,700 197,700" fill="#414141"/><polygon points="474,122 461,126 448,116 451,100 470,95 478,116" fill="#afafaf"/><polygon points="321,455 312,478 307,480 292,466 305,444 310,444" fill="#aaaaaa"/><polygon points="134,342 135,353 118,370 113,370 96,349 97,347 116,332" fill="#a9a9a9"/><polygon points="415,539 433,530 444,538 441,561 437,562 418,554" fill="#424242"/><polygon points="307,24 303,26 279,19 279,0 310,0" fill="#515151"/><polygon points="427,433 428,457 402,461 401,460 406,432" fill="#8f8f8f"/><polygon points="311,679 293,674 293,673 302,653 314,652 325,670" fill="#7d7d7d"/><polygon points="175,33 181,38 185,56 169,68 160,68 153,48" fill="#8e8e8e"/><polygon points="28,454 30,455 33,464 21,486 0,484 0,456" fill="#bababa"/><polygon points="216,613 199,619 193,613 192,595 200,590 218,598" fill="#cacaca"/><polygon points="378,525 353,524 352,505 355,502 375,503 382,516" fill="#dbdbdb"/><polygon points="427,15 404,33 404,33 392,23 391,0 427,0" fill="#f1f1f1"/><polygon points="149,190 136,188 131,168 146,162 159,173" fill="#949494"/><polygon points="269,685 285,672 293,673 293,674 292,700 269,700" fill="#434343"/><polygon points="289,365 304,359 321,371 322,377 297,390 292,387" fill="#5c5c5c"/><polygon points="344,161 325,165 315,154 328,133 341,136" fill="#3f3f3f"/><polygon points="482,557 475,582 457,579 451,566 472,549" fill="#3c3c3c"/><polygon points="309,623 311,617 328,608 331,609 341,627 334,639 321,640" fill="#bfbfbf"/><polygon points="217,276 218,287 201,301 189,297 191,274 203,269" fill="#bcbcbc"/><polygon points="474,390 471,373 500,368 500,394" fill="#505050"/><polygon points="211,495 231,498 236,509 230,522 211,521 205,503" fill="#3d3d3d"/><polygon points="354,74 379,59 381,60 384,86 373,93 356,84" fill="#b8b8b8"/><polygon points="409,621 410,621 412,645 391,650 388,649 384,625 384,625" fill="#444444"/><polygon points="48,245 30,239 26,226 43,215 54,219 59,228" fill="#c9c9c9"/><polygon points="309,339 306,334 320,313 322,312 342,330 339,347 338,347" fill="#f9f9f9"/><polygon points="224,672 242,680 242,700 214,700" fill="#5a5a5a"/><polygon points="200,453 194,443 212,424 222,429 225,444 219,454" fill="#868686"/><polygon points="164,393 184,388 188,390 193,408 176,424 159,415" fill="#4a4a4a"/><polygon points="268,537 263,523 264,520 281,514 297,527 283,544" fill="#505050"/><polygon points="279,19 272,27 258,28 244,0 279,0" fill="#1d1d1d"/><polygon points="268,591 268,591 283,605 280,616 259,624 250,614" fill="#767676"/><polygon points="381,180 392,188 394,204 385,215 363,205 362,191" fill="#cfcfcf"/><polygon points="225,469 219,454 225,444 247,447 249,458 230,471" fill="#d9d9d9"/><polygon points="51,498 68,502 78,517 77,518 55,534 43,525" fill="#151515"/><polygon points="365,675 366,674 387,675 387,700 368,700" fill="#dbdbdb"/><polygon points="403,108 384,118 372,109 373,93 384,86 397,90" fill="#323232"/><polygon points="424,585 405,568 418,554 437,562" fill="#c3c3c3"/><polygon points="38,198 51,188 66,202 54,219 43,215" fill="#c7c7c7"/><polygon points="33,20 48,18 56,26 49,42 28,36 26,29" fill="#adadad"/><polygon points="429,617 439,625 438,642 418,649 412,645 410,621" fill="#a9a9a9"/><polygon points="259,633 243,647 237,647 227,636 229,623 247,613 250,614 259,624" fill="#454545"/><polygon points="74,617 69,617 50,594 61,577 83,579 87,588" fill="#a4a4a4"/><polygon points="474,609 478,585 500,586 500,615" fill="#232323"/><polygon points="27,495 19,518 0,519 0,484 21,486" fill="#e3e3e3"/><polygon points="169,546 185,554 187,565 172,578 156,572 155,571" fill="#d3d3d3"/><polygon points="123,199 119,198 108,172 123,165 131,168 136,188" fill="#555555"/><polygon points="478,201 474,212 455,218 447,212 446,193 469,188" fill="#c7c7c7"/><polygon points="311,510 297,527 297,527 281,514 285,497 300,494" fill="#212121"/><polygon points="211,380 221,387 224,396 208,414 193,408 188,390" fill="#b5b5b5"/><polygon points="352,129 341,136 328,133 320,124 327,100 340,101 354,118" fill="#202020"/><polygon points="145,597 120,586 121,579 142,564 155,571 156,572" fill="#474747"/><polygon points="295,79 308,66 325,76 325,98 299,96" fill="#b6b6b6"/><polygon points="313,540 308,559 303,561 285,550 283,544 297,527 297,527" fill="#565656"/><polygon points="17,160 28,142 44,160 41,170 25,174" fill="#3f3f3f"/><polygon points="149,147 160,143 173,155 169,171 159,173 146,162" fill="#313131"/><polygon points="71,24 56,26 48,18 51,0 71,0" fill="#c3c3c3"/><polygon points="338,347 339,347 354,356 355,373 335,388 334,388 322,377 321,371" fill="#5d5d5d"/><polygon points="167,296 167,266 174,264 191,274 189,297 177,302" fill="#959595"/><polygon points="21,48 28,62 15,72 0,70 0,48" fill="#6d6d6d"/><polygon points="285,320 288,304 302,298 320,313 306,334 293,331" fill="#6b6b6b"/><polygon points="375,346 388,358 379,382 376,384 355,373 354,356" fill="#383838"/><polygon points="90,537 109,532 120,539 121,543 109,563 91,562 85,550" fill="#3d3d3d"/><polygon points="468,164 472,172 469,188 446,193 440,187 442,169" fill="#7a7a7a"/><polygon points="465,21 463,0 500,0 500,21" fill="#bfbfbf"/><polygon points="147,420 159,415 176,424 180,439 166,452 152,452 142,431" fill="#bdbdbd"/><polygon points="488,298 474,284 476,266 500,264 500,298" fill="#363636"/><polygon points="102,205 89,185 105,171 108,172 119,198" fill="#888888"/><polygon points="52,184 41,170 44,160 55,155 71,168 71,170" fill="#636363"/><polygon points="13,24 26,29 28,36 21,48 0,48 0,27" fill="#e4e4e4"/><polygon points="350,678 337,669 344,652 363,651 364,652 366,674 365,675" fill="#a9a9a9"/><polygon points="126,622 117,642 89,634 86,625 112,607" fill="#858585"/><polygon points="471,544 459,534 461,514 474,510 491,524" fill="#3d3d3d"/><polygon points="167,541 181,523 202,533 203,539 185,554 169,546" fill="#3a3a3a"/><polygon points="149,326 165,332 165,358 155,363 135,353 134,342" fill="#acacac"/><polygon points="440,245 455,234 472,243 473,262 450,264 439,252" fill="#121212"/><polygon points="336,24 329,31 307,24 310,0 334,0" fill="#434343"/><polygon points="205,249 194,241 205,218 221,224 224,231 218,246" fill="#0b0b0b"/><polygon points="263,220 281,215 291,233 286,243 269,243" fill="#414141"/><polygon points="15,72 21,92 0,98 0,70" fill="#b6b6b6"/><polygon points="478,585 474,609 464,616 461,615 448,593 457,579 475,582" fill="#c2c2c2"/><polygon points="55,440 66,449 65,468 53,474 33,464 30,455" fill="#818181"/><polygon points="472,172 468,164 469,156 486,143 500,145 500,172" fill="#515151"/><polygon points="189,149 197,154 194,175 174,176 169,171 173,155" fill="#3f3f3f"/><polygon points="384,487 393,486 406,510 404,513 382,516 375,503" fill="#292929"/><polygon points="455,293 445,289 444,286 450,264 473,262 476,266 474,284" fill="#c8c8c8"/><polygon points="72,139 59,142 49,131 50,121 75,115 81,121" fill="#aaaaaa"/><polygon points="476,266 473,262 472,243 486,232 500,232 500,264" fill="#707070"/><polygon points="258,28 250,38 237,39 226,27 238,0 244,0" fill="#b5b5b5"/><polygon points="363,629 358,625 360,604 371,599 381,605 384,625 384,625" fill="#434343"/><polygon points="105,171 93,154 102,140 110,138 121,145 123,165 108,172" fill="#353535"/><polygon points="421,50 438,46 450,62 449,68 447,70 417,74 415,73 415,72" fill="#646464"/><polygon points="91,562 109,563 121,579 120,586 111,595 87,588 83,579" fill="#6b6b6b"/><polygon points="376,384 371,403 367,406 346,404 335,388 355,373" fill="#959595"/><polygon points="237,534 237,536 226,548 213,548 203,539 202,533 211,521 230,522" fill="#262626"/><polygon points="467,479 449,493 432,483 435,464 448,460" fill="#f3f3f3"/><polygon points="174,176 194,175 202,183 202,185 180,204 174,200" fill="#444444"/><polygon points="302,408 291,418 270,412 270,411 273,392 292,387 297,390" fill="#191919"/><polygon points="356,84 373,93 372,109 354,118 340,101" fill="#e8e8e8"/><polygon points="221,224 233,208 253,217 242,233 224,231" fill="#6b6b6b"/><polygon points="351,217 334,210 328,198 329,194 352,184 362,191 363,205" fill="#7e7e7e"/><polygon points="242,365 220,354 221,341 236,332 251,348" fill="#c5c5c5"/><polygon points="274,462 275,443 292,436 305,444 292,466 281,467" fill="#d9d9d9"/><polygon points="270,84 248,78 246,70 258,55 275,57 279,75" fill="#535353"/><polygon points="309,339 338,347 321,371 304,359" fill="#8b8b8b"/><polygon points="419,506 424,487 432,483 449,493 450,506 432,516" fill="#b2b2b2"/><polygon points="210,198 204,216 182,209 180,204 202,185" fill="#efefef"/><polygon points="208,316 204,327 192,333 176,326 177,302 189,297 201,301" fill="#3d3d3d"/><polygon points="239,322 258,316 266,324 263,345 251,348 236,332" fill="#333333"/><polygon points="85,550 91,562 83,579 61,577 53,558 58,549" fill="#565656"/><polygon points="409,676 392,671 391,650 412,645 418,649 419,669" fill="#a9a9a9"/><polygon points="323,510 331,529 326,536 313,540 297,527 311,510" fill="#d1d1d1"/><polygon points="226,61 237,39 250,38 258,55 246,70" fill="#4a4a4a"/><polygon points="202,573 207,570 224,575 228,591 218,598 200,590" fill="#2f2f2f"/><polygon points="467,679 477,668 500,669 500,700 468,700" fill="#fdfdfd"/><polygon points="41,306 48,297 79,305 82,314 79,325 61,333 40,320" fill="#949494"/><polygon points="123,62 124,57 142,43 153,48 160,68 153,75 132,74" fill="#dddddd"/><polygon points="154,93 137,103 126,91 132,74 153,75" fill="#b6b6b6"/><polygon points="482,67 471,50 472,47 500,38 500,66" fill="#5b5b5b"/><polygon points="434,159 442,169 440,187 423,190 411,178 412,166" fill="#4d4d4d"/><polygon points="347,436 337,425 346,404 367,406 365,429" fill="#afafaf"/><polygon points="247,276 262,267 276,274 274,293 259,299 246,290" fill="#757575"/><polygon points="466,319 440,324 431,312 445,289 455,293" fill="#d2d2d2"/><polygon points="150,216 159,232 155,239 133,244 123,230 131,216" fill="#272727"/><polygon points="31,357 28,330 40,320 61,333 59,356 40,364" fill="#292929"/><polygon points="0,661 37,665 40,700 0,700" fill="#828282"/><polygon points="22,181 27,195 17,205 0,203 0,183" fill="#171717"/><polygon points="278,358 277,354 293,331 306,334 309,339 304,359 289,365" fill="#acacac"/><polygon points="420,278 418,262 439,252 450,264 444,286" fill="#b3b3b3"/><polygon points="292,436 291,418 302,408 314,411 322,425 310,444 305,444" fill="#7b7b7b"/><polygon points="420,107 436,120 431,138 411,136 410,110" fill="#eeeeee"/><polygon points="343,65 354,74 356,84 340,101 327,100 325,98 325,76" fill="#585858"/><polygon points="472,640 464,616 474,609 500,615 500,636" fill="#414141"/><polygon points="97,485 87,479 96,453 114,452 122,463 116,480" fill="#666666"/><polygon points="416,208 423,220 421,226 409,234 386,226 385,215 394,204" fill="#404040"/><polygon points="77,28 96,21 108,32 108,39 88,54 78,46" fill="#cbcbcb"/><polygon points="408,536 396,541 379,533 378,525 382,516 404,513" fill="#afafaf"/><polygon points="121,436 142,431 152,452 143,463 122,463 114,452" fill="#868686"/><polygon points="260,380 278,358 289,365 292,387 273,392" fill="#020202"/><polygon points="292,436 275,443 264,435 270,412 291,418" fill="#838383"/><polygon points="151,631 146,654 146,655 120,648 117,642 126,622 138,619" fill="#575757"/><polygon points="23,137 28,142 28,142 17,160 0,159 0,138" fill="#848484"/><polygon points="354,235 352,237 321,236 319,233 334,210 351,217" fill="#121212"/><polygon points="53,52 32,64 28,62 21,48 28,36 49,42" fill="#656565"/><polygon points="277,577 273,565 285,550 303,561 297,578" fill="#555555"/><polygon points="303,125 292,117 291,107 299,96 325,98 327,100 320,124" fill="#515151"/><polygon points="350,527 331,529 323,510 330,502 352,505 353,524" fill="#7f7f7f"/><polygon points="357,305 369,293 383,294 389,321 376,330 357,320" fill="#262626"/><polygon points="121,145 110,138 115,119 136,115 138,119 137,139" fill="#424242"/><polygon points="23,425 28,454 0,456 0,422" fill="#c4c4c4"/><polygon points="448,593 461,615 439,625 429,617 432,594" fill="#b1b1b1"/><polygon points="397,90 384,86 381,60 388,57 415,72 415,73" fill="#353535"/><polygon points="379,453 378,437 399,424 406,432 401,460" fill="#3b3b3b"/><polygon points="80,90 75,75 88,60 104,71 102,91" fill="#cecece"/><polygon points="157,202 174,200 180,204 182,209 174,230 159,232 150,216" fill="#848484"/><polygon points="486,232 472,243 455,234 455,218 474,212" fill="#050505"/><polygon points="138,551 142,564 121,579 109,563 121,543" fill="#5b5b5b"/><polygon points="156,14 139,29 125,22 123,0 155,0" fill="#adadad"/><polygon points="329,31 330,44 307,57 298,48 303,26 307,24" fill="#383838"/><polygon points="275,57 258,55 250,38 258,28 272,27 281,50" fill="#cecece"/><polygon points="33,20 26,29 13,24 17,0 26,0" fill="#a7a7a7"/><polygon points="412,166 411,178 392,188 381,180 380,165 403,155" fill="#828282"/><polygon points="179,511 188,502 205,503 211,521 202,533 181,523" fill="#d9d9d9"/><polygon points="138,518 120,539 109,532 108,511 127,504" fill="#858585"/><polygon points="58,549 53,558 31,560 22,552 30,527 43,525 55,534" fill="#d4d4d4"/><polygon points="250,170 238,158 241,146 253,142 269,154 267,165" fill="#262626"/><polygon points="260,250 269,243 286,243 293,257 289,269 276,274 262,267" fill="#d9d9d9"/><polygon points="74,364 78,385 69,394 40,386 40,364 59,356" fill="#626262"/><polygon points="84,480 68,502 51,498 50,497 53,474 65,468" fill="#4e4e4e"/><polygon points="0,293 41,306 40,320 28,330 0,326 0,293" fill="#424242"/><polygon points="176,590 172,578 187,565 202,573 200,590 192,595" fill="#b2b2b2"/><polygon points="435,464 432,483 424,487 402,476 402,461 428,457" fill="#e6e6e6"/><polygon points="410,110 411,136 403,142 385,132 384,118 403,108" fill="#4f4f4f"/><polygon points="273,657 276,646 288,640 302,653 293,673 285,672" fill="#717171"/><polygon points="276,490 285,497 281,514 264,520 256,508 261,492" fill="#c7c7c7"/><polygon points="192,355 192,333 204,327 221,341 220,354 210,362" fill="#2b2b2b"/><polygon points="424,588 432,594 429,617 410,621 409,621 404,599" fill="#131313"/><polygon points="300,494 285,497 276,490 281,467 292,466 307,480" fill="#f6f6f6"/><polygon points="22,552 31,560 26,588 0,589 0,553" fill="#929292"/><polygon points="97,214 109,231 98,248 81,244 76,232 86,216" fill="#555555"/><polygon points="136,115 115,119 104,108 105,94 126,91 137,103" fill="#252525"/><polygon points="472,640 468,645 447,650 438,642 439,625 461,615 464,616" fill="#3e3e3e"/><polygon points="31,357 40,364 40,386 33,394 0,389 0,364" fill="#353535"/><polygon points="197,85 201,87 206,111 199,119 195,120 174,101 183,88" fill="#373737"/><polygon points="325,567 327,578 320,587 303,588 297,578 303,561 308,559" fill="#e3e3e3"/><polygon points="209,29 208,30 181,38 175,33 174,28 193,0 198,0" fill="#2a2a2a"/><polygon points="445,671 436,676 419,669 418,649 438,642 447,650" fill="#2a2a2a"/><polygon points="307,57 308,66 295,79 279,75 275,57 281,50 298,48" fill="#717171"/><polygon points="106,415 121,436 114,452 96,453 86,443 89,423" fill="#a7a7a7"/><polygon points="305,284 289,269 293,257 319,253 322,258 322,276" fill="#ececec"/><polygon points="224,672 223,669 237,647 243,647 256,663 253,673 242,680" fill="#7a7a7a"/><polygon points="432,407 444,395 465,403 469,414 468,416 445,429 436,426" fill="#505050"/><polygon points="341,476 354,480 355,502 352,505 330,502 328,486" fill="#2b2b2b"/><polygon points="352,129 371,142 370,156 350,164 344,161 341,136" fill="#575757"/><polygon points="261,492 256,508 236,509 231,498 238,486 254,485" fill="#c9c9c9"/><polygon points="174,28 175,33 153,48 142,43 139,29 156,14" fill="#494949"/><polygon points="356,573 365,573 372,581 371,599 360,604 348,598 346,583" fill="#9c9c9c"/><polygon points="87,284 114,291 115,312 114,313 82,314 79,305" fill="#070707"/><polygon points="155,363 152,382 133,389 118,370 135,353" fill="#747474"/><polygon points="240,420 253,437 247,447 225,444 222,429" fill="#575757"/><polygon points="256,508 264,520 263,523 237,534 230,522 236,509" fill="#d9d9d9"/><polygon points="96,21 77,28 71,24 71,0 97,0" fill="#c5c5c5"/><polygon points="346,583 348,598 331,609 328,608 320,587 327,578" fill="#919191"/><polygon points="176,673 175,657 175,657 204,656 209,664 193,683" fill="#7a7a7a"/><polygon points="337,555 345,555 356,573 346,583 327,578 325,567" fill="#d6d6d6"/><polygon points="223,62 211,56 208,30 209,29 226,27 237,39 226,61" fill="#686868"/><polygon points="45,638 28,624 34,596 50,594 69,617" fill="#5e5e5e"/><polygon points="247,447 253,437 264,435 275,443 274,462 258,465 249,458" fill="#2d2d2d"/><polygon points="27,195 22,181 25,174 41,170 52,184 51,188 38,198" fill="#3a3a3a"/><polygon points="436,426 445,429 455,448 448,460 435,464 428,457 427,433" fill="#292929"/><polygon points="319,233 310,228 306,208 328,198 334,210" fill="#979797"/><polygon points="187,241 174,230 182,209 204,216 205,218 194,241" fill="#767676"/><polygon points="210,362 220,354 242,365 244,370 221,387 211,380" fill="#575757"/><polygon points="28,142 49,131 59,142 55,155 44,160 28,142" fill="#c9c9c9"/><polygon points="28,142 23,137 22,118 30,110 44,112 50,121 49,131" fill="#bababa"/><polygon points="215,137 210,151 197,154 189,149 186,131 195,120 199,119" fill="#dedede"/><polygon points="256,216 259,195 272,190 286,205 281,215 263,220" fill="#d2d2d2"/><polygon points="181,363 192,355 210,362 211,380 188,390 184,388" fill="#565656"/><polygon points="83,121 104,108 115,119 110,138 102,140" fill="#404040"/><polygon points="30,527 22,552 0,553 0,519 19,518" fill="#868686"/><polygon points="174,28 156,14 155,0 193,0" fill="#616161"/><polygon points="405,568 397,569 391,559 396,541 408,536 415,539 418,554" fill="#e9e9e9"/><polygon points="164,265 155,239 159,232 174,230 187,241 174,264 167,266" fill="#1a1a1a"/><polygon points="150,300 140,286 146,270 164,265 167,266 167,296" fill="#b8b8b8"/><polygon points="23,225 26,226 30,239 19,254 0,251 0,229" fill="#666666"/><polygon points="465,21 462,25 442,31 427,15 427,0 463,0" fill="#919191"/><polygon points="78,664 109,670 116,683 114,700 73,700" fill="#939393"/><polygon points="298,151 280,147 278,128 292,117 303,125" fill="#ededed"/><polygon points="32,64 41,83 24,93 21,92 15,72 28,62" fill="#afafaf"/><polygon points="472,47 462,25 465,21 500,21 500,38" fill="#acacac"/><polygon points="294,174 276,176 267,165 269,154 280,147 298,151 300,153" fill="#303030"/><polygon points="50,497 51,498 43,525 30,527 19,518 27,495" fill="#dbdbdb"/><polygon points="431,312 417,310 409,289 420,278 444,286 445,289" fill="#3c3c3c"/><polygon points="131,216 123,230 109,231 97,214 102,205 119,198 123,199" fill="#f8f8f8"/><polygon points="34,416 33,394 40,386 69,394 70,412 54,424" fill="#525252"/><polygon points="127,504 108,511 100,506 97,485 116,480 129,494" fill="#2f2f2f"/><polygon points="198,633 177,638 169,627 172,617 193,613 199,619" fill="#acacac"/><polygon points="72,100 53,95 49,85 61,72 75,75 80,90" fill="#c8c8c8"/><polygon points="459,534 471,544 472,549 451,566 441,561 444,538" fill="#1a1a1a"/><polygon points="130,256 146,270 140,286 119,287 116,263" fill="#9c9c9c"/><polygon points="66,202 71,201 86,216 76,232 59,228 54,219" fill="#4d4d4d"/><polygon points="37,665 47,654 78,663 78,664 73,700 40,700" fill="#0b0b0b"/><polygon points="278,128 280,147 269,154 253,142 260,123" fill="#777777"/><polygon points="319,253 293,257 286,243 291,233 310,228 319,233 321,236" fill="#a6a6a6"/><polygon points="172,617 165,604 176,590 192,595 193,613" fill="#212121"/><polygon points="90,537 85,550 58,549 55,534 77,518" fill="#4a4a4a"/><polygon points="486,143 474,122 478,116 500,113 500,145" fill="#2f2f2f"/><polygon points="47,654 37,665 0,661 0,629 28,624 45,638" fill="#878787"/><polygon points="137,139 138,119 162,121 166,129 160,143 149,147" fill="#323232"/><polygon points="156,488 177,476 181,477 188,502 179,511 161,506" fill="#acacac"/><polygon points="247,613 229,623 216,613 218,598 228,591 236,593" fill="#eeeeee"/><polygon points="427,95 417,74 447,70 445,94" fill="#727272"/><polygon points="391,559 374,557 369,548 379,533 396,541" fill="#b3b3b3"/><polygon points="126,91 105,94 102,91 104,71 123,62 132,74" fill="#b9b9b9"/><polygon points="256,663 243,647 259,633 276,646 273,657" fill="#030303"/><polygon points="44,112 53,95 72,100 75,115 50,121" fill="#4d4d4d"/><polygon points="33,394 34,416 23,425 0,422 0,389" fill="#727272"/><polygon points="477,436 468,416 469,414 500,411 500,434" fill="#5e5e5e"/><polygon points="169,103 174,101 195,120 186,131 166,129 162,121" fill="#ececec"/><polygon points="233,120 256,117 260,123 253,142 241,146 229,133" fill="#b5b5b5"/><polygon points="193,472 181,477 177,476 166,452 180,439 194,443 200,453" fill="#c2c2c2"/><polygon points="448,116 436,120 420,107 427,95 445,94 451,100" fill="#f1f1f1"/><polygon points="86,443 96,453 87,479 84,480 65,468 66,449" fill="#606060"/><polygon points="273,657 285,672 269,685 253,673 256,663" fill="#848484"/><polygon points="78,663 47,654 45,638 69,617 74,617 86,625 89,634" fill="#e2e2e2"/><polygon points="125,22 139,29 142,43 124,57 108,39 108,32" fill="#cecece"/><polygon points="357,320 376,330 375,346 354,356 339,347 342,330" fill="#a6a6a6"/><polygon points="203,269 191,274 174,264 187,241 194,241 205,249" fill="#2d2d2d"/><polygon points="467,349 438,347 435,343 440,324 466,319 468,320 470,324" fill="#7d7d7d"/><polygon points="143,674 146,655 146,654 175,657 176,673 157,690" fill="#323232"/><polygon points="291,631 288,640 276,646 259,633 259,624 280,616" fill="#b5b5b5"/><polygon points="255,559 255,552 268,537 283,544 285,550 273,565" fill="#6d6d6d"/><polygon points="344,652 337,669 329,671 325,670 314,652 321,640 334,639" fill="#505050"/><polygon points="146,270 130,256 133,244 155,239 164,265" fill="#535353"/><polygon points="404,324 412,343 404,356 388,358 375,346 376,330 389,321" fill="#6f6f6f"/><polygon points="407,255 409,234 421,226 440,245 439,252 418,262" fill="#444444"/><polygon points="148,520 161,506 179,511 181,523 167,541 155,536" fill="#bfbfbf"/><polygon points="392,23 366,32 361,25 363,0 391,0" fill="#696969"/><polygon points="367,473 369,461 379,453 401,460 402,461 402,476 393,486 384,487" fill="#d4d4d4"/><polygon points="472,446 481,461 468,479 467,479 448,460 455,448" fill="#454545"/><polygon points="152,452 166,452 177,476 156,488 149,485 143,463" fill="#494949"/><polygon points="84,154 71,168 55,155 59,142 72,139" fill="#a8a8a8"/><polygon points="363,651 363,629 384,625 388,649 364,652" fill="#222222"/><polygon points="270,99 258,109 240,91 248,78 270,84" fill="#494949"/><polygon points="481,491 468,479 481,461 500,462 500,489" fill="#575757"/><polygon points="491,524 474,510 481,491 500,489 500,524" fill="#b6b6b6"/><polygon points="355,545 369,548 374,557 365,573 356,573 345,555" fill="#8e8e8e"/><polygon points="251,582 236,593 228,591 224,575 234,565 248,566" fill="#e9e9e9"/><polygon points="231,94 226,109 206,111 201,87 218,83" fill="#8f8f8f"/><polygon points="157,690 176,673 193,683 197,700 157,700" fill="#1b1b1b"/><polygon points="481,461 472,446 477,436 500,434 500,462" fill="#bbbbbb"/><polygon points="229,133 241,146 238,158 223,164 210,151 215,137" fill="#b3b3b3"/><polygon points="471,50 482,67 473,83 449,68 450,62" fill="#888888"/><polygon points="442,378 468,370 471,373 474,390 465,403 444,395" fill="#afafaf"/><polygon points="343,65 342,54 365,39 379,59 354,74" fill="#c5c5c5"/><polygon points="19,254 28,270 0,293 0,293 0,251" fill="#929292"/><polygon points="398,417 399,424 378,437 365,429 367,406 371,403" fill="#242424"/><polygon points="123,165 121,145 137,139 149,147 146,162 131,168" fill="#c7c7c7"/><polygon points="52,253 37,273 28,270 19,254 30,239 48,245" fill="#6c6c6c"/><polygon points="108,410 129,401 147,420 142,431 121,436 106,415" fill="#393939"/><polygon points="459,534 444,538 433,530 432,516 450,506 461,514" fill="#a7a7a7"/><polygon points="166,129 186,131 189,149 173,155 160,143" fill="#111111"/><polygon points="231,498 211,495 210,481 225,469 230,471 238,486" fill="#494949"/><polygon points="477,668 468,645 472,640 500,636 500,669" fill="#f4f4f4"/><polygon points="210,481 193,472 200,453 219,454 225,469" fill="#060606"/><polygon points="337,456 346,448 369,461 367,473 354,480 341,476" fill="#2f2f2f"/><polygon points="276,176 272,190 259,195 246,185 250,170 267,165" fill="#a7a7a7"/><polygon points="286,205 272,190 276,176 294,174 301,182 296,202" fill="#f6f6f6"/><polygon points="144,312 150,300 167,296 177,302 176,326 165,332 149,326" fill="#4e4e4e"/><polygon points="277,577 297,578 303,588 298,600 283,605 268,591" fill="#dadada"/><polygon points="336,296 335,285 357,270 369,293 357,305" fill="#aaaaaa"/><polygon points="221,173 234,190 230,198 210,198 202,185 202,183" fill="#c8c8c8"/><polygon points="381,605 397,596 404,599 409,621 384,625" fill="#bfbfbf"/><polygon points="478,585 475,582 482,557 500,557 500,586" fill="#757575"/><polygon points="427,95 420,107 410,110 403,108 397,90 415,73 417,74" fill="#acacac"/><polygon points="230,312 233,297 246,290 259,299 258,316 239,322" fill="#424242"/><polygon points="467,349 467,349 470,324 500,329 500,349" fill="#afafaf"/><polygon points="456,142 436,146 431,138 436,120 448,116 461,126" fill="#878787"/><polygon points="115,312 144,312 149,326 134,342 116,332 114,313" fill="#171717"/><polygon points="293,674 311,679 314,700 292,700" fill="#888888"/><polygon points="112,607 86,625 74,617 87,588 111,595" fill="#bcbcbc"/><polygon points="116,683 143,674 157,690 157,700 114,700" fill="#d9d9d9"/><polygon points="109,670 78,664 78,663 89,634 117,642 120,648" fill="#c8c8c8"/><polygon points="174,176 174,200 157,202 149,190 159,173 169,171" fill="#262626"/><polygon points="311,679 325,670 329,671 331,700 314,700" fill="#e3e3e3"/><polygon points="147,600 138,619 126,622 112,607 111,595 120,586 145,597" fill="#acacac"/><polygon points="264,435 253,437 240,420 243,408 270,411 270,412" fill="#c8c8c8"/><polygon points="83,184 89,185 102,205 97,214 86,216 71,201" fill="#c5c5c5"/><polygon points="278,128 260,123 256,117 258,109 270,99 291,107 292,117" fill="#cecece"/><polygon points="155,536 167,541 169,546 155,571 142,564 138,551" fill="#b4b4b4"/><polygon points="54,424 70,412 89,423 86,443 66,449 55,440" fill="#525252"/><polygon points="13,24 0,27 0,0 17,0" fill="#7f7f7f"/><polygon points="180,439 176,424 193,408 208,414 212,424 194,443" fill="#828282"/><polygon points="86,280 103,258 116,263 119,287 114,291 87,284" fill="#adadad"/><polygon points="22,118 23,137 0,138 0,114" fill="#b9b9b9"/><polygon points="226,109 233,120 229,133 215,137 199,119 206,111" fill="#606060"/><polygon points="300,153 298,151 303,125 320,124 328,133 315,154" fill="#6c6c6c"/><polygon points="336,296 357,305 357,320 342,330 322,312" fill="#545454"/><polygon points="233,297 230,312 208,316 201,301 218,287" fill="#393939"/><polygon points="361,25 366,32 365,39 342,54 330,44 329,31 336,24" fill="#4d4d4d"/><polygon points="28,270 37,273 48,289 48,297 41,306 0,293" fill="#353535"/><polygon points="44,112 30,110 24,93 41,83 49,85 53,95" fill="#1e1e1e"/><polygon points="48,289 72,272 86,280 87,284 79,305 48,297" fill="#505050"/><polygon points="21,92 24,93 30,110 22,118 0,114 0,98" fill="#b2b2b2"/><polygon points="472,47 471,50 450,62 438,46 442,31 462,25" fill="#d2d2d2"/><polygon points="486,232 474,212 478,201 500,198 500,232" fill="#cdcdcd"/><polygon points="207,570 202,573 187,565 185,554 203,539 213,548" fill="#d1d1d1"/><polygon points="321,181 329,194 328,198 306,208 296,202 301,182" fill="#bebebe"/><polygon points="337,555 325,567 308,559 313,540 326,536" fill="#3c3c3c"/><polygon points="436,146 434,159 412,166 403,155 403,142 411,136 431,138" fill="#a5a5a5"/><polygon points="34,596 26,588 31,560 53,558 61,577 50,594" fill="#474747"/><polygon points="169,103 162,121 138,119 136,115 137,103 154,93" fill="#666666"/><polygon points="230,198 234,190 246,185 259,195 256,216 253,217 233,208" fill="#c5c5c5"/><polygon points="409,676 419,669 436,676 435,700 410,700" fill="#dfdfdf"/><polygon points="474,89 473,83 482,67 500,66 500,93" fill="#494949"/><polygon points="133,389 129,401 108,410 96,388 113,370 118,370" fill="#a4a4a4"/><polygon points="363,651 344,652 334,639 341,627 358,625 363,629" fill="#4f4f4f"/><polygon points="378,236 354,235 351,217 363,205 385,215 386,226" fill="#a2a2a2"/><polygon points="408,391 416,375 436,372 442,378 444,395 432,407 410,400" fill="#bbbbbb"/><polygon points="230,312 239,322 236,332 221,341 204,327 208,316" fill="#c4c4c4"/><polygon points="291,631 280,616 283,605 298,600 311,617 309,623" fill="#efefef"/><polygon points="307,57 330,44 342,54 343,65 325,76 308,66" fill="#cacaca"/><polygon points="34,596 28,624 0,629 0,589 26,588" fill="#cacaca"/><polygon points="156,488 161,506 148,520 138,518 127,504 129,494 149,485" fill="#535353"/><polygon points="352,184 329,194 321,181 325,165 344,161 350,164" fill="#bdbdbd"/><polygon points="100,506 108,511 109,532 90,537 77,518 78,517" fill="#5b5b5b"/><polygon points="152,382 155,363 165,358 181,363 184,388 164,393" fill="#2d2d2d"/><polygon points="83,184 71,170 71,168 84,154 93,154 105,171 89,185" fill="#acacac"/><polygon points="230,198 233,208 221,224 205,218 204,216 210,198" fill="#4f4f4f"/><polygon points="298,600 303,588 320,587 328,608 311,617" fill="#525252"/><polygon points="210,151 223,164 221,173 202,183 194,175 197,154" fill="#9a9a9a"/><polygon points="328,486 330,502 323,510 311,510 300,494 307,480 312,478" fill="#545454"/><polygon points="399,424 398,417 410,400 432,407 436,426 427,433 406,432" fill="#303030"/><polygon points="115,312 114,291 119,287 140,286 150,300 144,312" fill="#3e3e3e"/><polygon points="130,256 116,263 103,258 98,248 109,231 123,230 133,244" fill="#a3a3a3"/><polygon points="78,46 88,54 88,60 75,75 61,72 55,54" fill="#8b8b8b"/><polygon points="208,414 224,396 242,405 243,408 240,420 222,429 212,424" fill="#b6b6b6"/><polygon points="365,39 366,32 392,23 404,33 388,57 381,60 379,59" fill="#3c3c3c"/><polygon points="55,54 61,72 49,85 41,83 32,64 53,52" fill="#575757"/><polygon points="226,109 231,94 240,91 258,109 256,117 233,120" fill="#525252"/><polygon points="17,160 25,174 22,181 0,183 0,159" fill="#3b3b3b"/><polygon points="276,490 261,492 254,485 258,465 274,462 281,467" fill="#7c7c7c"/><polygon points="100,506 78,517 68,502 84,480 87,479 97,485" fill="#282828"/><polygon points="471,373 468,370 467,349 500,349 500,368" fill="#b0b0b0"/><polygon points="183,88 174,101 169,103 154,93 153,75 160,68 169,68" fill="#5b5b5b"/><polygon points="236,593 251,582 268,591 250,614 247,613" fill="#6e6e6e"/><polygon points="48,18 33,20 26,0 51,0" fill="#939393"/><polygon points="256,379 242,405 224,396 221,387 244,370" fill="#e5e5e5"/><polygon points="387,675 392,671 409,676 410,700 387,700" fill="#8e8e8e"/><polygon points="23,225 17,205 27,195 38,198 43,215 26,226" fill="#595959"/><polygon points="322,425 337,425 347,436 346,448 337,456 321,455 310,444" fill="#2a2a2a"/><polygon points="346,448 347,436 365,429 378,437 379,453 369,461" fill="#6e6e6e"/><polygon points="157,202 150,216 131,216 123,199 136,188 149,190" fill="#7a7a7a"/><polygon points="372,581 392,578 397,596 381,605 371,599" fill="#7e7e7e"/><polygon points="146,654 151,631 169,627 177,638 175,657 175,657" fill="#4b4b4b"/><polygon points="421,226 423,220 447,212 455,218 455,234 440,245" fill="#292929"/><polygon points="442,31 438,46 421,50 404,33 427,15" fill="#333333"/><polygon points="165,604 147,600 145,597 156,572 172,578 176,590" fill="#a2a2a2"/><polygon points="243,408 242,405 256,379 260,380 273,392 270,411" fill="#b6b6b6"/><polygon points="448,593 432,594 424,588 424,585 437,562 441,561 451,566 457,579" fill="#646464"/><polygon points="148,520 155,536 138,551 121,543 120,539 138,518" fill="#888888"/><polygon points="197,61 211,56 223,62 218,83 201,87 197,85" fill="#aeaeae"/><polygon points="435,343 438,347 436,372 416,375 404,356 412,343" fill="#c3c3c3"/><polygon points="482,557 472,549 471,544 491,524 500,524 500,557" fill="#d4d4d4"/><polygon points="350,256 322,258 319,253 321,236 352,237" fill="#282828"/><polygon points="223,669 209,664 204,656 206,642 227,636 237,647" fill="#c2c2c2"/><polygon points="469,414 465,403 474,390 500,394 500,411" fill="#8d8d8d"/><polygon points="397,596 392,578 397,569 405,568 424,585 424,588 404,599" fill="#717171"/><polygon points="423,220 416,208 423,190 440,187 446,193 447,212" fill="#1d1d1d"/><polygon points="274,293 276,274 289,269 305,284 302,298 288,304" fill="#7b7b7b"/><polygon points="72,272 48,289 37,273 52,253 68,260" fill="#f8f8f8"/><polygon points="384,259 358,267 350,256 352,237 354,235 378,236" fill="#1b1b1b"/><polygon points="436,372 438,347 467,349 467,349 468,370 442,378" fill="#303030"/><polygon points="398,417 371,403 376,384 379,382 408,391 410,400" fill="#898989"/><polygon points="374,557 391,559 397,569 392,578 372,581 365,573" fill="#929292"/><polygon points="210,481 211,495 205,503 188,502 181,477 193,472" fill="#5b5b5b"/><polygon points="74,364 59,356 61,333 79,325 97,347 96,349" fill="#d3d3d3"/><polygon points="436,146 456,142 469,156 468,164 442,169 434,159" fill="#9f9f9f"/><polygon points="259,299 274,293 288,304 285,320 266,324 258,316" fill="#cfcfcf"/><polygon points="435,343 412,343 404,324 417,310 431,312 440,324" fill="#131313"/><polygon points="406,510 393,486 402,476 424,487 419,506" fill="#737373"/><polygon points="314,411 302,408 297,390 322,377 334,388" fill="#888888"/><polygon points="255,552 255,559 248,566 234,565 226,548 237,536" fill="#595959"/><polygon points="17,205 23,225 0,229 0,203" fill="#2b2b2b"/><polygon points="445,671 447,650 468,645 477,668 467,679" fill="#dadada"/><polygon points="291,107 270,99 270,84 279,75 295,79 299,96" fill="#525252"/><polygon points="253,217 256,216 263,220 269,243 260,250 247,246 242,233" fill="#6e6e6e"/><polygon points="181,363 165,358 165,332 176,326 192,333 192,355" fill="#939393"/><polygon points="288,640 291,631 309,623 321,640 314,652 302,653" fill="#898989"/><polygon points="466,319 455,293 474,284 488,298 468,320" fill="#e2e2e2"/><polygon points="206,642 204,656 175,657 177,638 198,633" fill="#6a6a6a"/><polygon points="263,345 266,324 285,320 293,331 277,354" fill="#e7e7e7"/><polygon points="322,276 322,258 350,256 358,267 357,270 335,285" fill="#9a9a9a"/><polygon points="421,50 415,72 388,57 404,33 404,33" fill="#363636"/><polygon points="337,456 341,476 328,486 312,478 321,455" fill="#989898"/><polygon points="369,548 355,545 350,527 353,524 378,525 379,533" fill="#848484"/><polygon points="232,265 217,276 203,269 205,249 218,246 232,258" fill="#565656"/><polygon points="72,100 80,90 102,91 105,94 104,108 83,121 81,121 75,115" fill="#8d8d8d"/><polygon points="381,180 362,191 352,184 350,164 370,156 380,165" fill="#c9c9c9"/><polygon points="104,71 88,60 88,54 108,39 124,57 123,62" fill="#484848"/><polygon points="296,202 306,208 310,228 291,233 281,215 286,205" fill="#b9b9b9"/><polygon points="23,425 34,416 54,424 55,440 30,455 28,454" fill="#878787"/><polygon points="478,201 469,188 472,172 500,172 500,198" fill="#8f8f8f"/><polygon points="28,330 31,357 0,364 0,326" fill="#b4b4b4"/><polygon points="305,284 322,276 335,285 336,296 322,312 320,313 302,298" fill="#9d9d9d"/><polygon points="125,22 108,32 96,21 97,0 123,0" fill="#a0a0a0"/><polygon points="68,260 52,253 48,245 59,228 76,232 81,244" fill="#dbdbdb"/><polygon points="419,506 432,516 433,530 415,539 408,536 404,513 406,510" fill="#afafaf"/><polygon points="52,184 71,170 83,184 71,201 66,202 51,188" fill="#c7c7c7"/><polygon points="53,474 50,497 27,495 21,486 33,464" fill="#b2b2b2"/><polygon points="329,671 337,669 350,678 345,700 331,700" fill="#cbcbcb"/><polygon points="436,676 445,671 467,679 468,700 435,700" fill="#4b4b4b"/><polygon points="355,545 345,555 337,555 326,536 331,529 350,527" fill="#dcdcdc"/><polygon points="321,181 301,182 294,174 300,153 315,154 325,165" fill="#464646"/><polygon points="129,401 133,389 152,382 164,393 159,415 147,420" fill="#595959"/><polygon points="226,27 209,29 198,0 238,0" fill="#a3a3a3"/><polygon points="251,582 248,566 255,559 273,565 277,577 268,591 268,591" fill="#cccccc"/><polygon points="165,604 172,617 169,627 151,631 138,619 147,600" fill="#373737"/><polygon points="322,425 314,411 334,388 335,388 346,404 337,425" fill="#242424"/><polygon points="208,30 211,56 197,61 185,56 181,38" fill="#101010"/><polygon points="361,25 336,24 334,0 363,0" fill="#b7b7b7"/><polygon points="229,623 227,636 206,642 198,633 199,619 216,613" fill="#cacaca"/><polygon points="71,24 77,28 78,46 55,54 53,52 49,42 56,26" fill="#464646"/><polygon points="404,356 416,375 408,391 379,382 388,358" fill="#6b6b6b"/><polygon points="260,250 262,267 247,276 232,265 232,258 247,246" fill="#9a9a9a"/><polygon points="256,379 244,370 242,365 251,348 263,345 277,354 278,358 260,380" fill="#707070"/><polygon points="357,270 358,267 384,259 387,261 391,287 383,294 369,293" fill="#e3e3e3"/><polygon points="246,185 234,190 221,173 223,164 238,158 250,170" fill="#c1c1c1"/><polygon points="354,480 367,473 384,487 375,503 355,502" fill="#262626"/><polygon points="387,261 384,259 378,236 386,226 409,234 407,255" fill="#bfbfbf"/><polygon points="83,121 102,140 93,154 84,154 72,139 81,121" fill="#c4c4c4"/><polygon points="350,678 365,675 368,700 345,700" fill="#afafaf"/><polygon points="411,178 423,190 416,208 394,204 392,188" fill="#1b1b1b"/><polygon points="247,276 246,290 233,297 218,287 217,276 232,265" fill="#030303"/><polygon points="477,436 472,446 455,448 445,429 468,416" fill="#181818"/><polygon points="486,143 469,156 456,142 461,126 474,122" fill="#ababab"/><polygon points="197,61 197,85 183,88 169,68 185,56" fill="#1b1b1b"/><polygon points="116,683 109,670 120,648 146,655 143,674" fill="#9e9e9e"/><polygon points="240,91 231,94 218,83 223,62 226,61 246,70 248,78" fill="#a7a7a7"/><polygon points="372,109 384,118 385,132 371,142 352,129 354,118" fill="#7c7c7c"/><polygon points="409,289 391,287 387,261 407,255 418,262 420,278" fill="#aaaaaa"/><polygon points="96,388 78,385 74,364 96,349 113,370" fill="#4f4f4f"/><polygon points="213,548 226,548 234,565 224,575 207,570" fill="#adadad"/><polygon points="263,523 268,537 255,552 237,536 237,534" fill="#cbcbcb"/><polygon points="70,412 69,394 78,385 96,388 108,410 106,415 89,423" fill="#aaaaaa"/><polygon points="348,598 360,604 358,625 341,627 331,609" fill="#cccccc"/><polygon points="81,244 98,248 103,258 86,280 72,272 68,260" fill="#111111"/><polygon points="404,324 389,321 383,294 391,287 409,289 417,310" fill="#3c3c3c"/></svg>
