<svg xmlns="http://www.w3.org/2000/svg" viewBox="0 0 500 700" width="500" height="700" preserveAspectRatio="none"><polygon points="268.4,256.7 247.7,289.6 192.9,272.1 189.7,262.5 206.1,225.7 255.7,226.5" fill="none" stroke="#7f7f7f" stroke-width="0.8"/><polygon points="401.9,660.8 413.1,651.8 450.8,659.6 456.0,700.0 403.1,700.0" fill="none" stroke="#4d4d4d" stroke-width="0.8"/><polygon points="442.9,153.8 405.5,148.2 413.7,97.5 447.4,90.6 449.2,92.0 459.2,135.6" fill="none" stroke="#2c2c2c" stroke-width="0.8"/><polygon points="432.4,370.2 429.5,326.0 436.0,319.7 500.0,330.6 500.0,368.8" fill="none" stroke="#494949" stroke-width="0.8"/><polygon points="445.9,511.9 435.6,501.5 439.5,460.9 500.0,465.4 500.0,502.3" fill="none" stroke="#434343" stroke-width="0.8"/><polygon points="320.4,58.5 315.5,80.1 260.1,86.3 248.2,51.9 257.0,36.9 310.8,41.5" fill="none" stroke="#7e7e7e" stroke-width="0.8"/><polygon points="290.1,456.5 270.9,505.5 252.2,511.4 218.2,494.0 215.7,469.9 228.0,447.5 269.3,439.9" fill="none" stroke="#3a3a3a" stroke-width="0.8"/><polygon points="142.8,460.1 141.9,486.2 125.2,510.3 87.7,514.0 66.0,488.5 71.4,445.8" fill="none" stroke="#464646" stroke-width="0.8"/><polygon points="459.2,135.6 449.2,92.0 500.0,88.3 500.0,138.4" fill="none" stroke="#9b9b9b" stroke-width="0.8"/><polygon points="74.2,300.6 88.2,310.7 88.4,316.4 53.8,370.3 0.0,366.8 0.0,309.6" fill="none" stroke="#8d8d8d" stroke-width="0.8"/><polygon points="233.2,662.6 259.4,646.7 286.2,665.5 283.4,700.0 232.0,700.0" fill="none" stroke="#1a1a1a" stroke-width="0.8"/><polygon points="394.6,202.4 384.9,208.8 331.2,189.4 332.1,172.1 367.4,141.6 400.3,151.1" fill="none" stroke="#b7b7b7" stroke-width="0.8"/><polygon points="124.6,647.5 164.8,629.7 185.8,642.8 176.8,700.0 126.2,700.0" fill="none" stroke="#787878" stroke-width="0.8"/><polygon points="449.2,92.0 447.4,90.6 448.0,48.5 500.0,39.2 500.0,88.3" fill="none" stroke="#d0d0d0" stroke-width="0.8"/><polygon points="334.7,423.2 376.1,435.2 383.6,450.2 371.0,483.9 341.0,492.8 306.7,455.2" fill="none" stroke="#9e9e9e" stroke-width="0.8"/><polygon points="132.0,369.9 125.4,389.7 77.5,406.9 53.8,370.3 88.4,316.4" fill="none" stroke="#3e3e3e" stroke-width="0.8"/><polygon points="449.1,547.4 439.0,560.5 388.9,555.4 385.8,552.1 396.3,511.0 435.6,501.5 445.9,511.9" fill="none" stroke="#c5c5c5" stroke-width="0.8"/><polygon points="310.8,41.5 257.0,36.9 252.9,0.0 317.6,0.0" fill="none" stroke="#676767" stroke-width="0.8"/><polygon points="398.8,389.0 423.4,384.6 444.8,419.4 435.5,454.4 383.6,450.2 376.1,435.2" fill="none" stroke="#fdfdfd" stroke-width="0.8"/><polygon points="260.8,619.4 284.6,603.8 317.8,632.3 313.2,651.3 286.2,665.5 259.4,646.7" fill="none" stroke="#767676" stroke-width="0.8"/><polygon points="196.4,53.5 189.4,62.5 154.9,68.7 127.7,32.2 133.0,0.0 190.9,0.0" fill="none" stroke="#bababa" stroke-width="0.8"/><polygon points="0.0,512.2 0.0,435.7 68.2,439.7 71.4,445.8 66.0,488.5" fill="none" stroke="#252525" stroke-width="0.8"/><polygon points="198.0,640.7 185.8,642.8 164.8,629.7 162.1,598.6 207.0,569.0 219.0,573.6 226.7,601.4" fill="none" stroke="#646464" stroke-width="0.8"/><polygon points="357.1,552.2 330.3,518.3 341.0,492.8 371.0,483.9 396.3,511.0 385.8,552.1" fill="none" stroke="#a9a9a9" stroke-width="0.8"/><polygon points="433.0,33.2 385.4,57.4 371.6,45.4 368.3,0.0 432.2,0.0" fill="none" stroke="#9e9e9e" stroke-width="0.8"/><polygon points="210.4,167.7 193.0,197.9 154.9,194.3 139.0,155.6 159.6,132.1 195.1,133.0" fill="none" stroke="#e4e4e4" stroke-width="0.8"/><polygon points="286.2,665.5 313.2,651.3 344.1,682.3 344.3,700.0 283.4,700.0" fill="none" stroke="#6e6e6e" stroke-width="0.8"/><polygon points="301.6,325.9 300.7,377.2 271.7,389.3 246.1,377.1 238.0,335.6 253.7,314.2" fill="none" stroke="#282828" stroke-width="0.8"/><polygon points="269.2,199.3 255.6,168.7 270.3,140.1 302.4,137.6 332.1,172.1 331.2,189.4 322.0,199.0" fill="none" stroke="#505050" stroke-width="0.8"/><polygon points="446.6,598.8 439.0,560.5 449.1,547.4 500.0,553.9 500.0,589.7" fill="none" stroke="#929292" stroke-width="0.8"/><polygon points="335.8,579.0 348.6,615.3 317.8,632.3 284.6,603.8 291.0,574.7 293.1,573.2" fill="none" stroke="#aaaaaa" stroke-width="0.8"/><polygon points="253.7,314.2 238.0,335.6 180.1,334.6 173.9,314.5 192.9,272.1 247.7,289.6" fill="none" stroke="#8e8e8e" stroke-width="0.8"/><polygon points="444.8,419.4 423.4,384.6 432.4,370.2 500.0,368.8 500.0,411.8" fill="none" stroke="#535353" stroke-width="0.8"/><polygon points="195.3,512.7 141.9,486.2 142.8,460.1 150.3,451.1 215.7,469.9 218.2,494.0" fill="none" stroke="#434343" stroke-width="0.8"/><polygon points="371.6,45.4 385.4,57.4 388.5,80.6 356.1,108.1 324.2,98.3 315.5,80.1 320.4,58.5" fill="none" stroke="#e2e2e2" stroke-width="0.8"/><polygon points="371.2,652.5 358.2,618.5 390.5,601.0 414.4,613.3 413.1,651.8 401.9,660.8" fill="none" stroke="#c6c6c6" stroke-width="0.8"/><polygon points="74.2,300.6 0.0,309.6 0.0,249.0 57.3,246.2" fill="none" stroke="#969696" stroke-width="0.8"/><polygon points="317.9,262.3 323.7,257.2 377.5,260.0 379.5,262.2 378.5,316.8 364.3,328.5 317.4,314.6" fill="none" stroke="#b8b8b8" stroke-width="0.8"/><polygon points="185.8,642.8 198.0,640.7 233.2,662.6 232.0,700.0 176.8,700.0" fill="none" stroke="#bdbdbd" stroke-width="0.8"/><polygon points="203.2,402.4 203.4,401.5 246.1,377.1 271.7,389.3 269.3,439.9 228.0,447.5" fill="none" stroke="#989898" stroke-width="0.8"/><polygon points="173.2,351.2 203.4,401.5 203.2,402.4 154.0,429.3 125.4,389.7 132.0,369.9" fill="none" stroke="#5f5f5f" stroke-width="0.8"/><polygon points="303.1,527.0 293.1,573.2 291.0,574.7 245.5,557.3 252.2,511.4 270.9,505.5" fill="none" stroke="#aaaaaa" stroke-width="0.8"/><polygon points="257.0,36.9 248.2,51.9 196.4,53.5 190.9,0.0 252.9,0.0" fill="none" stroke="#9a9a9a" stroke-width="0.8"/><polygon points="245.5,557.3 291.0,574.7 284.6,603.8 260.8,619.4 226.7,601.4 219.0,573.6" fill="none" stroke="#797979" stroke-width="0.8"/><polygon points="322.0,199.0 331.2,189.4 384.9,208.8 377.5,260.0 323.7,257.2" fill="none" stroke="#e1e1e1" stroke-width="0.8"/><polygon points="150.3,451.1 154.0,429.3 203.2,402.4 228.0,447.5 215.7,469.9" fill="none" stroke="#888888" stroke-width="0.8"/><polygon points="71.9,560.2 60.6,563.3 0.0,529.5 0.0,512.2 66.0,488.5 87.7,514.0" fill="none" stroke="#9f9f9f" stroke-width="0.8"/><polygon points="344.1,682.3 371.2,652.5 401.9,660.8 403.1,700.0 344.3,700.0" fill="none" stroke="#676767" stroke-width="0.8"/><polygon points="356.1,108.1 388.5,80.6 413.7,97.5 405.5,148.2 400.3,151.1 367.4,141.6" fill="none" stroke="#232323" stroke-width="0.8"/><polygon points="446.6,598.8 446.6,598.8 414.4,613.3 390.5,601.0 388.9,555.4 439.0,560.5" fill="none" stroke="#474747" stroke-width="0.8"/><polygon points="38.8,185.4 71.4,223.1 57.3,246.2 0.0,249.0 0.0,189.0" fill="none" stroke="#1a1a1a" stroke-width="0.8"/><polygon points="100.4,97.4 87.3,86.5 89.1,51.6 127.7,32.2 154.9,68.7 142.1,91.0" fill="none" stroke="#757575" stroke-width="0.8"/><polygon points="465.6,644.4 450.8,659.6 413.1,651.8 414.4,613.3 446.6,598.8" fill="none" stroke="#b0b0b0" stroke-width="0.8"/><polygon points="198.0,640.7 226.7,601.4 260.8,619.4 259.4,646.7 233.2,662.6" fill="none" stroke="#6b6b6b" stroke-width="0.8"/><polygon points="0.0,620.1 32.1,617.3 65.3,641.2 57.2,700.0 0.0,700.0" fill="none" stroke="#a2a2a2" stroke-width="0.8"/><polygon points="450.8,659.6 465.6,644.4 500.0,644.2 500.0,700.0 456.0,700.0" fill="none" stroke="#c2c2c2" stroke-width="0.8"/><polygon points="32.1,617.3 0.0,620.1 0.0,529.5 60.6,563.3" fill="none" stroke="#d8d8d8" stroke-width="0.8"/><polygon points="189.1,539.0 207.0,569.0 162.1,598.6 132.8,574.1 142.9,546.0" fill="none" stroke="#b0b0b0" stroke-width="0.8"/><polygon points="125.9,228.9 92.8,216.9 99.8,152.5 139.0,155.6 154.9,194.3" fill="none" stroke="#606060" stroke-width="0.8"/><polygon points="445.8,231.3 437.8,212.2 454.6,184.3 500.0,186.1 500.0,235.1" fill="none" stroke="#d1d1d1" stroke-width="0.8"/><polygon points="330.3,518.3 303.1,527.0 270.9,505.5 290.1,456.5 306.7,455.2 341.0,492.8" fill="none" stroke="#a0a0a0" stroke-width="0.8"/><polygon points="173.2,351.2 180.1,334.6 238.0,335.6 246.1,377.1 203.4,401.5" fill="none" stroke="#424242" stroke-width="0.8"/><polygon points="302.4,137.6 324.2,98.3 356.1,108.1 367.4,141.6 332.1,172.1" fill="none" stroke="#d2d2d2" stroke-width="0.8"/><polygon points="97.9,630.6 105.4,582.7 132.8,574.1 162.1,598.6 164.8,629.7 124.6,647.5" fill="none" stroke="#575757" stroke-width="0.8"/><polygon points="302.4,137.6 270.3,140.1 251.2,106.7 260.1,86.3 315.5,80.1 324.2,98.3" fill="none" stroke="#181818" stroke-width="0.8"/><polygon points="335.8,579.0 293.1,573.2 303.1,527.0 330.3,518.3 357.1,552.2" fill="none" stroke="#e6e6e6" stroke-width="0.8"/><polygon points="39.0,123.8 58.4,150.2 38.8,185.4 0.0,189.0 0.0,125.8" fill="none" stroke="#888888" stroke-width="0.8"/><polygon points="142.1,91.0 154.9,68.7 189.4,62.5 209.7,111.5 195.1,133.0 159.6,132.1" fill="none" stroke="#2d2d2d" stroke-width="0.8"/><polygon points="127.7,32.2 89.1,51.6 60.7,29.3 57.9,0.0 133.0,0.0" fill="none" stroke="#151515" stroke-width="0.8"/><polygon points="317.4,314.6 364.3,328.5 364.6,364.3 326.3,389.6 300.7,377.2 301.6,325.9" fill="none" stroke="#e4e4e4" stroke-width="0.8"/><polygon points="173.9,314.5 112.7,296.4 132.9,245.7 189.7,262.5 192.9,272.1" fill="none" stroke="#232323" stroke-width="0.8"/><polygon points="53.0,94.7 25.9,60.6 60.7,29.3 89.1,51.6 87.3,86.5" fill="none" stroke="#9f9f9f" stroke-width="0.8"/><polygon points="317.9,262.3 317.4,314.6 301.6,325.9 253.7,314.2 247.7,289.6 268.4,256.7" fill="none" stroke="#e2e2e2" stroke-width="0.8"/><polygon points="364.6,364.3 364.3,328.5 378.5,316.8 429.5,326.0 432.4,370.2 423.4,384.6 398.8,389.0" fill="none" stroke="#595959" stroke-width="0.8"/><polygon points="142.9,546.0 132.8,574.1 105.4,582.7 71.9,560.2 87.7,514.0 125.2,510.3" fill="none" stroke="#c2c2c2" stroke-width="0.8"/><polygon points="454.6,184.3 437.8,212.2 394.6,202.4 400.3,151.1 405.5,148.2 442.9,153.8" fill="none" stroke="#686868" stroke-width="0.8"/><polygon points="448.0,48.5 433.0,33.2 432.2,0.0 500.0,0.0 500.0,39.2" fill="none" stroke="#292929" stroke-width="0.8"/><polygon points="154.0,429.3 150.3,451.1 142.8,460.1 71.4,445.8 68.2,439.7 77.5,406.9 125.4,389.7" fill="none" stroke="#8d8d8d" stroke-width="0.8"/><polygon points="436.0,319.7 443.2,280.9 500.0,278.7 500.0,330.6" fill="none" stroke="#515151" stroke-width="0.8"/><polygon points="132.9,245.7 112.7,296.4 88.2,310.7 74.2,300.6 57.3,246.2 71.4,223.1 92.8,216.9 125.9,228.9" fill="none" stroke="#6f6f6f" stroke-width="0.8"/><polygon points="58.4,150.2 97.7,150.6 99.8,152.5 92.8,216.9 71.4,223.1 38.8,185.4" fill="none" stroke="#969696" stroke-width="0.8"/><polygon points="60.7,29.3 25.9,60.6 0.0,58.7 0.0,0.0 57.9,0.0" fill="none" stroke="#777777" stroke-width="0.8"/><polygon points="344.1,682.3 313.2,651.3 317.8,632.3 348.6,615.3 358.2,618.5 371.2,652.5" fill="none" stroke="#a8a8a8" stroke-width="0.8"/><polygon points="65.3,641.2 97.9,630.6 124.6,647.5 126.2,700.0 57.2,700.0" fill="none" stroke="#5a5a5a" stroke-width="0.8"/><polygon points="449.1,547.4 445.9,511.9 500.0,502.3 500.0,553.9" fill="none" stroke="#c5c5c5" stroke-width="0.8"/><polygon points="189.1,539.0 142.9,546.0 125.2,510.3 141.9,486.2 195.3,512.7" fill="none" stroke="#bbbbbb" stroke-width="0.8"/><polygon points="112.7,296.4 173.9,314.5 180.1,334.6 173.2,351.2 132.0,369.9 88.4,316.4 88.2,310.7" fill="none" stroke="#494949" stroke-width="0.8"/><polygon points="437.8,212.2 445.8,231.3 433.5,264.3 379.5,262.2 377.5,260.0 384.9,208.8 394.6,202.4" fill="none" stroke="#dddddd" stroke-width="0.8"/><polygon points="371.6,45.4 320.4,58.5 310.8,41.5 317.6,0.0 368.3,0.0" fill="none" stroke="#424242" stroke-width="0.8"/><polygon points="193.0,197.9 210.4,167.7 255.6,168.7 269.2,199.3 255.7,226.5 206.1,225.7" fill="none" stroke="#606060" stroke-width="0.8"/><polygon points="269.2,199.3 322.0,199.0 323.7,257.2 317.9,262.3 268.4,256.7 255.7,226.5" fill="none" stroke="#959595" stroke-width="0.8"/><polygon points="25.9,60.6 53.0,94.7 39.0,123.8 0.0,125.8 0.0,58.7" fill="none" stroke="#4f4f4f" stroke-width="0.8"/><polygon points="465.6,644.4 446.6,598.8 446.6,598.8 500.0,589.7 500.0,644.2" fill="none" stroke="#2e2e2e" stroke-width="0.8"/><polygon points="53.8,370.3 77.5,406.9 68.2,439.7 0.0,435.7 0.0,366.8" fill="none" stroke="#d8d8d8" stroke-width="0.8"/><polygon points="454.6,184.3 442.9,153.8 459.2,135.6 500.0,138.4 500.0,186.1" fill="none" stroke="#747474" stroke-width="0.8"/><polygon points="210.4,167.7 195.1,133.0 209.7,111.5 251.2,106.7 270.3,140.1 255.6,168.7" fill="none" stroke="#6c6c6c" stroke-width="0.8"/><polygon points="435.5,454.4 439.5,460.9 435.6,501.5 396.3,511.0 371.0,483.9 383.6,450.2" fill="none" stroke="#454545" stroke-width="0.8"/><polygon points="433.5,264.3 443.2,280.9 436.0,319.7 429.5,326.0 378.5,316.8 379.5,262.2" fill="none" stroke="#525252" stroke-width="0.8"/><polygon points="53.0,94.7 87.3,86.5 100.4,97.4 97.7,150.6 58.4,150.2 39.0,123.8" fill="none" stroke="#b2b2b2" stroke-width="0.8"/><polygon points="443.2,280.9 433.5,264.3 445.8,231.3 500.0,235.1 500.0,278.7" fill="none" stroke="#9a9a9a" stroke-width="0.8"/><polygon points="251.2,106.7 209.7,111.5 189.4,62.5 196.4,53.5 248.2,51.9 260.1,86.3" fill="none" stroke="#686868" stroke-width="0.8"/><polygon points="390.5,601.0 358.2,618.5 348.6,615.3 335.8,579.0 357.1,552.2 385.8,552.1 388.9,555.4" fill="none" stroke="#6d6d6d" stroke-width="0.8"/><polygon points="97.7,150.6 100.4,97.4 142.1,91.0 159.6,132.1 139.0,155.6 99.8,152.5" fill="none" stroke="#a9a9a9" stroke-width="0.8"/><polygon points="388.5,80.6 385.4,57.4 433.0,33.2 448.0,48.5 447.4,90.6 413.7,97.5" fill="none" stroke="#8b8b8b" stroke-width="0.8"/><polygon points="105.4,582.7 97.9,630.6 65.3,641.2 32.1,617.3 60.6,563.3 71.9,560.2" fill="none" stroke="#0b0b0b" stroke-width="0.8"/><polygon points="326.3,389.6 364.6,364.3 398.8,389.0 376.1,435.2 334.7,423.2" fill="none" stroke="#9b9b9b" stroke-width="0.8"/><polygon points="245.5,557.3 219.0,573.6 207.0,569.0 189.1,539.0 195.3,512.7 218.2,494.0 252.2,511.4" fill="none" stroke="#dadada" stroke-width="0.8"/><polygon points="439.5,460.9 435.5,454.4 444.8,419.4 500.0,411.8 500.0,465.4" fill="none" stroke="#a4a4a4" stroke-width="0.8"/><polygon points="132.9,245.7 125.9,228.9 154.9,194.3 193.0,197.9 206.1,225.7 189.7,262.5" fill="none" stroke="#333333" stroke-width="0.8"/><polygon points="271.7,389.3 300.7,377.2 326.3,389.6 334.7,423.2 306.7,455.2 290.1,456.5 269.3,439.9" fill="none" stroke="#a3a3a3" stroke-width="0.8"/><polygon points="268.4,256.7 247.7,289.6 192.9,272.1 189.7,262.5 206.1,225.7 255.7,226.5" fill="#7f7f7f"/><polygon points="401.9,660.8 413.1,651.8 450.8,659.6 456.0,700.0 403.1,700.0" fill="#4d4d4d"/><polygon points="442.9,153.8 405.5,148.2 413.7,97.5 447.4,90.6 449.2,92.0 459.2,135.6" fill="#2c2c2c"/><polygon points="432.4,370.2 429.5,326.0 436.0,319.7 500.0,330.6 500.0,368.8" fill="#494949"/><polygon points="445.9,511.9 435.6,501.5 439.5,460.9 500.0,465.4 500.0,502.3" fill="#434343"/><polygon points="320.4,58.5 315.5,80.1 260.1,86.3 248.2,51.9 257.0,36.9 310.8,41.5" fill="#7e7e7e"/><polygon points="290.1,456.5 270.9,505.5 252.2,511.4 218.2,494.0 215.7,469.9 228.0,447.5 269.3,439.9" fill="#3a3a3a"/><polygon points="142.8,460.1 141.9,486.2 125.2,510.3 87.7,514.0 66.0,488.5 71.4,445.8" fill="#464646"/><polygon points="459.2,135.6 449.2,92.0 500.0,88.3 500.0,138.4" fill="#9b9b9b"/><polygon points="74.2,300.6 88.2,310.7 88.4,316.4 53.8,370.3 0.0,366.8 0.0,309.6" fill="#8d8d8d"/><polygon points="233.2,662.6 259.4,646.7 286.2,665.5 283.4,700.0 232.0,700.0" fill="#1a1a1a"/><polygon points="394.6,202.4 384.9,208.8 331.2,189.4 332.1,172.1 367.4,141.6 400.3,151.1" fill="#b7b7b7"/><polygon points="124.6,647.5 164.8,629.7 185.8,642.8 176.8,700.0 126.2,700.0" fill="#787878"/><polygon points="449.2,92.0 447.4,90.6 448.0,48.5 500.0,39.2 500.0,88.3" fill="#d0d0d0"/><polygon points="334.7,423.2 376.1,435.2 383.6,450.2 371.0,483.9 341.0,492.8 306.7,455.2" fill="#9e9e9e"/><polygon points="132.0,369.9 125.4,389.7 77.5,406.9 53.8,370.3 88.4,316.4" fill="#3e3e3e"/><polygon points="449.1,547.4 439.0,560.5 388.9,555.4 385.8,552.1 396.3,511.0 435.6,501.5 445.9,511.9" fill="#c5c5c5"/><polygon points="310.8,41.5 257.0,36.9 252.9,0.0 317.6,0.0" fill="#676767"/><polygon points="398.8,389.0 423.4,384.6 444.8,419.4 435.5,454.4 383.6,450.2 376.1,435.2" fill="#fdfdfd"/><polygon points="260.8,619.4 284.6,603.8 317.8,632.3 313.2,651.3 286.2,665.5 259.4,646.7" fill="#767676"/><polygon points="196.4,53.5 189.4,62.5 154.9,68.7 127.7,32.2 133.0,0.0 190.9,0.0" fill="#bababa"/><polygon points="0.0,512.2 0.0,435.7 68.2,439.7 71.4,445.8 66.0,488.5" fill="#252525"/><polygon points="198.0,640.7 185.8,642.8 164.8,629.7 162.1,598.6 207.0,569.0 219.0,573.6 226.7,601.4" fill="#646464"/><polygon points="357.1,552.2 330.3,518.3 341.0,492.8 371.0,483.9 396.3,511.0 385.8,552.1" fill="#a9a9a9"/><polygon points="433.0,33.2 385.4,57.4 371.6,45.4 368.3,0.0 432.2,0.0" fill="#9e9e9e"/><polygon points="210.4,167.7 193.0,197.9 154.9,194.3 139.0,155.6 159.6,132.1 195.1,133.0" fill="#e4e4e4"/><polygon points="286.2,665.5 313.2,651.3 344.1,682.3 344.3,700.0 283.4,700.0" fill="#6e6e6e"/><polygon points="301.6,325.9 300.7,377.2 271.7,389.3 246.1,377.1 238.0,335.6 253.7,314.2" fill="#282828"/><polygon points="269.2,199.3 255.6,168.7 270.3,140.1 302.4,137.6 332.1,172.1 331.2,189.4 322.0,199.0" fill="#505050"/><polygon points="446.6,598.8 439.0,560.5 449.1,547.4 500.0,553.9 500.0,589.7" fill="#929292"/><polygon points="335.8,579.0 348.6,615.3 317.8,632.3 284.6,603.8 291.0,574.7 293.1,573.2" fill="#aaaaaa"/><polygon points="253.7,314.2 238.0,335.6 180.1,334.6 173.9,314.5 192.9,272.1 247.7,289.6" fill="#8e8e8e"/><polygon points="444.8,419.4 423.4,384.6 432.4,370.2 500.0,368.8 500.0,411.8" fill="#535353"/><polygon points="195.3,512.7 141.9,486.2 142.8,460.1 150.3,451.1 215.7,469.9 218.2,494.0" fill="#434343"/><polygon points="371.6,45.4 385.4,57.4 388.5,80.6 356.1,108.1 324.2,98.3 315.5,80.1 320.4,58.5" fill="#e2e2e2"/><polygon points="371.2,652.5 358.2,618.5 390.5,601.0 414.4,613.3 413.1,651.8 401.9,660.8" fill="#c6c6c6"/><polygon points="74.2,300.6 0.0,309.6 0.0,249.0 57.3,246.2" fill="#969696"/><polygon points="317.9,262.3 323.7,257.2 377.5,260.0 379.5,262.2 378.5,316.8 364.3,328.5 317.4,314.6" fill="#b8b8b8"/><polygon points="185.8,642.8 198.0,640.7 233.2,662.6 232.0,700.0 176.8,700.0" fill="#bdbdbd"/><polygon points="203.2,402.4 203.4,401.5 246.1,377.1 271.7,389.3 269.3,439.9 228.0,447.5" fill="#989898"/><polygon points="173.2,351.2 203.4,401.5 203.2,402.4 154.0,429.3 125.4,389.7 132.0,369.9" fill="#5f5f5f"/><polygon points="303.1,527.0 293.1,573.2 291.0,574.7 245.5,557.3 252.2,511.4 270.9,505.5" fill="#aaaaaa"/><polygon points="257.0,36.9 248.2,51.9 196.4,53.5 190.9,0.0 252.9,0.0" fill="#9a9a9a"/><polygon points="245.5,557.3 291.0,574.7 284.6,603.8 260.8,619.4 226.7,601.4 219.0,573.6" fill="#797979"/><polygon points="322.0,199.0 331.2,189.4 384.9,208.8 377.5,260.0 323.7,257.2" fill="#e1e1e1"/><polygon points="150.3,451.1 154.0,429.3 203.2,402.4 228.0,447.5 215.7,469.9" fill="#888888"/><polygon points="71.9,560.2 60.6,563.3 0.0,529.5 0.0,512.2 66.0,488.5 87.7,514.0" fill="#9f9f9f"/><polygon points="344.1,682.3 371.2,652.5 401.9,660.8 403.1,700.0 344.3,700.0" fill="#676767"/><polygon points="356.1,108.1 388.5,80.6 413.7,97.5 405.5,148.2 400.3,151.1 367.4,141.6" fill="#232323"/><polygon points="446.6,598.8 446.6,598.8 414.4,613.3 390.5,601.0 388.9,555.4 439.0,560.5" fill="#474747"/><polygon points="38.8,185.4 71.4,223.1 57.3,246.2 0.0,249.0 0.0,189.0" fill="#1a1a1a"/><polygon points="100.4,97.4 87.3,86.5 89.1,51.6 127.7,32.2 154.9,68.7 142.1,91.0" fill="#757575"/><polygon points="465.6,644.4 450.8,659.6 413.1,651.8 414.4,613.3 446.6,598.8" fill="#b0b0b0"/><polygon points="198.0,640.7 226.7,601.4 260.8,619.4 259.4,646.7 233.2,662.6" fill="#6b6b6b"/><polygon points="0.0,620.1 32.1,617.3 65.3,641.2 57.2,700.0 0.0,700.0" fill="#a2a2a2"/><polygon points="450.8,659.6 465.6,644.4 500.0,644.2 500.0,700.0 456.0,700.0" fill="#c2c2c2"/><polygon points="32.1,617.3 0.0,620.1 0.0,529.5 60.6,563.3" fill="#d8d8d8"/><polygon points="189.1,539.0 207.0,569.0 162.1,598.6 132.8,574.1 142.9,546.0" fill="#b0b0b0"/><polygon points="125.9,228.9 92.8,216.9 99.8,152.5 139.0,155.6 154.9,194.3" fill="#606060"/><polygon points="445.8,231.3 437.8,212.2 454.6,184.3 500.0,186.1 500.0,235.1" fill="#d1d1d1"/><polygon points="330.3,518.3 303.1,527.0 270.9,505.5 290.1,456.5 306.7,455.2 341.0,492.8" fill="#a0a0a0"/><polygon points="173.2,351.2 180.1,334.6 238.0,335.6 246.1,377.1 203.4,401.5" fill="#424242"/><polygon points="302.4,137.6 324.2,98.3 356.1,108.1 367.4,141.6 332.1,172.1" fill="#d2d2d2"/><polygon points="97.9,630.6 105.4,582.7 132.8,574.1 162.1,598.6 164.8,629.7 124.6,647.5" fill="#575757"/><polygon points="302.4,137.6 270.3,140.1 251.2,106.7 260.1,86.3 315.5,80.1 324.2,98.3" fill="#181818"/><polygon points="335.8,579.0 293.1,573.2 303.1,527.0 330.3,518.3 357.1,552.2" fill="#e6e6e6"/><polygon points="39.0,123.8 58.4,150.2 38.8,185.4 0.0,189.0 0.0,125.8" fill="#888888"/><polygon points="142.1,91.0 154.9,68.7 189.4,62.5 209.7,111.5 195.1,133.0 159.6,132.1" fill="#2d2d2d"/><polygon points="127.7,32.2 89.1,51.6 60.7,29.3 57.9,0.0 133.0,0.0" fill="#151515"/><polygon points="317.4,314.6 364.3,328.5 364.6,364.3 326.3,389.6 300.7,377.2 301.6,325.9" fill="#e4e4e4"/><polygon points="173.9,314.5 112.7,296.4 132.9,245.7 189.7,262.5 192.9,272.1" fill="#232323"/><polygon points="53.0,94.7 25.9,60.6 60.7,29.3 89.1,51.6 87.3,86.5" fill="#9f9f9f"/><polygon points="317.9,262.3 317.4,314.6 301.6,325.9 253.7,314.2 247.7,289.6 268.4,256.7" fill="#e2e2e2"/><polygon points="364.6,364.3 364.3,328.5 378.5,316.8 429.5,326.0 432.4,370.2 423.4,384.6 398.8,389.0" fill="#595959"/><polygon points="142.9,546.0 132.8,574.1 105.4,582.7 71.9,560.2 87.7,514.0 125.2,510.3" fill="#c2c2c2"/><polygon points="454.6,184.3 437.8,212.2 394.6,202.4 400.3,151.1 405.5,148.2 442.9,153.8" fill="#686868"/><polygon points="448.0,48.5 433.0,33.2 432.2,0.0 500.0,0.0 500.0,39.2" fill="#292929"/><polygon points="154.0,429.3 150.3,451.1 142.8,460.1 71.4,445.8 68.2,439.7 77.5,406.9 125.4,389.7" fill="#8d8d8d"/><polygon points="436.0,319.7 443.2,280.9 500.0,278.7 500.0,330.6" fill="#515151"/><polygon points="132.9,245.7 112.7,296.4 88.2,310.7 74.2,300.6 57.3,246.2 71.4,223.1 92.8,216.9 125.9,228.9" fill="#6f6f6f"/><polygon points="58.4,150.2 97.7,150.6 99.8,152.5 92.8,216.9 71.4,223.1 38.8,185.4" fill="#969696"/><polygon points="60.7,29.3 25.9,60.6 0.0,58.7 0.0,0.0 57.9,0.0" fill="#777777"/><polygon points="344.1,682.3 313.2,651.3 317.8,632.3 348.6,615.3 358.2,618.5 371.2,652.5" fill="#a8a8a8"/><polygon points="65.3,641.2 97.9,630.6 124.6,647.5 126.2,700.0 57.2,700.0" fill="#5a5a5a"/><polygon points="449.1,547.4 445.9,511.9 500.0,502.3 500.0,553.9" fill="#c5c5c5"/><polygon points="189.1,539.0 142.9,546.0 125.2,510.3 141.9,486.2 195.3,512.7" fill="#bbbbbb"/><polygon points="112.7,296.4 173.9,314.5 180.1,334.6 173.2,351.2 132.0,369.9 88.4,316.4 88.2,310.7" fill="#494949"/><polygon points="437.8,212.2 445.8,231.3 433.5,264.3 379.5,262.2 377.5,260.0 384.9,208.8 394.6,202.4" fill="#dddddd"/><polygon points="371.6,45.4 320.4,58.5 310.8,41.5 317.6,0.0 368.3,0.0" fill="#424242"/><polygon points="193.0,197.9 210.4,167.7 255.6,168.7 269.2,199.3 255.7,226.5 206.1,225.7" fill="#606060"/><polygon points="269.2,199.3 322.0,199.0 323.7,257.2 317.9,262.3 268.4,256.7 255.7,226.5" fill="#959595"/><polygon points="25.9,60.6 53.0,94.7 39.0,123.8 0.0,125.8 0.0,58.7" fill="#4f4f4f"/><polygon points="465.6,644.4 446.6,598.8 446.6,598.8 500.0,589.7 500.0,644.2" fill="#2e2e2e"/><polygon points="53.8,370.3 77.5,406.9 68.2,439.7 0.0,435.7 0.0,366.8" fill="#d8d8d8"/><polygon points="454.6,184.3 442.9,153.8 459.2,135.6 500.0,138.4 500.0,186.1" fill="#747474"/><polygon points="210.4,167.7 195.1,133.0 209.7,111.5 251.2,106.7 270.3,140.1 255.6,168.7" fill="#6c6c6c"/><polygon points="435.5,454.4 439.5,460.9 435.6,501.5 396.3,511.0 371.0,483.9 383.6,450.2" fill="#454545"/><polygon points="433.5,264.3 443.2,280.9 436.0,319.7 429.5,326.0 378.5,316.8 379.5,262.2" fill="#525252"/><polygon points="53.0,94.7 87.3,86.5 100.4,97.4 97.7,150.6 58.4,150.2 39.0,123.8" fill="#b2b2b2"/><polygon points="443.2,280.9 433.5,264.3 445.8,231.3 500.0,235.1 500.0,278.7" fill="#9a9a9a"/><polygon points="251.2,106.7 209.7,111.5 189.4,62.5 196.4,53.5 248.2,51.9 260.1,86.3" fill="#686868"/><polygon points="390.5,601.0 358.2,618.5 348.6,615.3 335.8,579.0 357.1,552.2 385.8,552.1 388.9,555.4" fill="#6d6d6d"/><polygon points="97.7,150.6 100.4,97.4 142.1,91.0 159.6,132.1 139.0,155.6 99.8,152.5" fill="#a9a9a9"/><polygon points="388.5,80.6 385.4,57.4 433.0,33.2 448.0,48.5 447.4,90.6 413.7,97.5" fill="#8b8b8b"/><polygon points="105.4,582.7 97.9,630.6 65.3,641.2 32.1,617.3 60.6,563.3 71.9,560.2" fill="#0b0b0b"/><polygon points="326.3,389.6 364.6,364.3 398.8,389.0 376.1,435.2 334.7,423.2" fill="#9b9b9b"/><polygon points="245.5,557.3 219.0,573.6 207.0,569.0 189.1,539.0 195.3,512.7 218.2,494.0 252.2,511.4" fill="#dadada"/><polygon points="439.5,460.9 435.5,454.4 444.8,419.4 500.0,411.8 500.0,465.4" fill="#a4a4a4"/><polygon points="132.9,245.7 125.9,228.9 154.9,194.3 193.0,197.9 206.1,225.7 189.7,262.5" fill="#333333"/><polygon points="271.7,389.3 300.7,377.2 326.3,389.6 334.7,423.2 306.7,455.2 290.1,456.5 269.3,439.9" fill="#a3a3a3"/></svg>
